<svg width="14" height="14" viewBox="0 0 14 14" fill="none" xmlns="http://www.w3.org/2000/svg">
<path d="M4.34869 13.4013C2.83207 13.4013 1.46477 12.4877 0.884293 11.0866C0.303811 9.68542 0.62444 8.07258 1.69669 7L3.28819 5.4085L4.34869 6.469L2.75794 8.05975C2.18949 8.6282 1.96748 9.45674 2.17555 10.2333C2.38362 11.0098 2.99015 11.6163 3.76667 11.8244C4.5432 12.0325 5.37174 11.8105 5.94019 11.242L7.53094 9.65125L8.59144 10.7125L7.00069 12.3033C6.29875 13.0087 5.34383 13.404 4.34869 13.4013ZM4.87894 10.1815L3.81844 9.121L9.12169 3.81775L10.1822 4.87825L4.87969 10.1808L4.87894 10.1815ZM10.7132 8.59075L9.65194 7.53025L11.2427 5.9395C11.8189 5.37275 12.0468 4.5405 11.8399 3.75924C11.6329 2.97797 11.0228 2.36774 10.2416 2.16058C9.46038 1.95343 8.62808 2.18119 8.06119 2.75725L6.46969 4.348L5.40919 3.2875L7.00069 1.696C8.46701 0.242475 10.8324 0.247654 12.2924 1.70759C13.7523 3.16752 13.7575 5.53294 12.3039 6.99925L10.7132 8.59V8.59075Z" fill="#3F4246"/>
</svg>
