<svg width="114" height="30" viewBox="0 0 114 30" fill="none" xmlns="http://www.w3.org/2000/svg">
<path d="M57.0667 6.26667V23.7667C57.0667 23.9 56.9667 24.0333 56.8 24.0333H54.9667C54.1333 24.0333 53.3333 23.6 52.8667 22.9L44.6 10.1333L44.8667 16.5V23.8C44.8667 23.9333 44.7667 24.0667 44.6 24.0667H42.2C42.0667 24.0667 41.9333 23.9667 41.9333 23.8V6.26667C41.9333 6.13333 42.0333 6 42.2 6H44C44.8333 6 45.6333 6.43333 46.1 7.13333L54.3667 19.8667L54.1 13.5V6.26667C54.1 6.13333 54.2 6 54.3667 6H56.7667C56.9667 6 57.0667 6.1 57.0667 6.26667Z" fill="black"/>
<path d="M81.6667 24H79.1334C78.9667 24 78.8334 23.8333 78.9 23.6667L85.6334 6.23333C85.7 6.1 85.8334 6 85.9667 6H89.1667C89.3334 6 89.4667 6.1 89.5 6.23333L96.2667 23.6667C96.3334 23.8333 96.2 24 96.0334 24H93.5C93.4 24 93.3 23.9333 93.2667 23.8333L87.8334 9.5C87.7667 9.3 87.4334 9.3 87.3667 9.5L81.9334 23.8333C81.8667 23.9333 81.7667 24 81.6667 24Z" fill="black"/>
<path d="M113.933 23.6L108.867 17.1333C111.733 16.6 113.4 14.6667 113.4 11.7C113.4 8.3 111.2 6 107.267 6H100.2C100 6 99.8334 6.16667 99.8334 6.36667C99.8334 7.7 100.9 8.76667 102.233 8.76667H107C109.367 8.76667 110.5 9.96667 110.5 11.7333C110.5 13.5 109.4 14.7 107 14.7H100.267C100.067 14.7 99.9 14.8667 99.9 15.0667V23.7333C99.9 23.8667 100 24 100.167 24H102.567C102.7 24 102.833 23.9 102.833 23.7333V17.3H105.6L110 23.0333C110.467 23.6667 111.2 24 112 24H113.833C113.967 24 114.067 23.7667 113.933 23.6Z" fill="black"/>
<path d="M74.0667 6H62.9C62.7 6 62.5667 6.13333 62.5667 6.33333C62.5667 7.66667 63.6667 8.76667 65 8.76667H74.0667C74.2 8.76667 74.3333 8.66667 74.3333 8.5V6.23333C74.3 6.1 74.2 6 74.0667 6ZM74.0667 21.2333H65.7333C65.6 21.2333 65.4667 21.1333 65.4667 20.9667V16.4667C65.4667 16.3333 65.5667 16.2 65.7333 16.2H73.4333C73.5667 16.2 73.7 16.1 73.7 15.9333V13.6667C73.7 13.5333 73.6 13.4 73.4333 13.4H62.9333C62.7333 13.4 62.5667 13.5667 62.5667 13.7667V23.6C62.5667 23.8 62.7333 23.9667 62.9333 23.9667H74.0667C74.2 23.9667 74.3333 23.8667 74.3333 23.7V21.4333C74.3 21.3333 74.2 21.2333 74.0667 21.2333Z" fill="black"/>
<path d="M24.0667 1.53333L17.8 10.8333C17.3667 11.4667 18.2 12.2333 18.8 11.7L24.9667 6.33333C25.1333 6.2 25.3667 6.3 25.3667 6.53333V23.3C25.3667 23.5333 25.0667 23.6333 24.9333 23.4667L6.26667 1.13333C5.66667 0.4 4.8 0 3.83333 0H3.16667C1.43333 0 0 1.43333 0 3.2V26.8C0 28.5667 1.43333 30 3.2 30C4.3 30 5.33333 29.4333 5.93333 28.4667L12.2 19.1667C12.6333 18.5333 11.8 17.7667 11.2 18.3L5.03333 23.6333C4.86667 23.7667 4.63333 23.6667 4.63333 23.4333V6.7C4.63333 6.46667 4.93333 6.36667 5.06667 6.53333L23.7333 28.8667C24.3333 29.6 25.2333 30 26.1667 30H26.8333C28.6 30 30.0333 28.5667 30.0333 26.8V3.2C30 1.43333 28.5667 0 26.8 0C25.7 0 24.6667 0.566667 24.0667 1.53333Z" fill="black"/>
</svg>
