<svg width="618" height="471" viewBox="0 0 618 471" fill="none" xmlns="http://www.w3.org/2000/svg">
<path opacity="0.5" d="M133 280H131.5V281.5H133V280ZM134.5 228C134.5 227.172 133.828 226.5 133 226.5C132.172 226.5 131.5 227.172 131.5 228H134.5ZM131.5 228.531C131.5 229.359 132.172 230.031 133 230.031C133.828 230.031 134.5 229.359 134.5 228.531H131.5ZM134.5 234.898C134.5 234.07 133.828 233.398 133 233.398C132.172 233.398 131.5 234.07 131.5 234.898L134.5 234.898ZM131.5 235.959C131.5 236.788 132.172 237.459 133 237.459C133.828 237.459 134.5 236.788 134.5 235.959L131.5 235.959ZM134.5 242.327C134.5 241.498 133.828 240.827 133 240.827C132.172 240.827 131.5 241.498 131.5 242.327H134.5ZM131.5 243.388C131.5 244.216 132.172 244.888 133 244.888C133.828 244.888 134.5 244.216 134.5 243.388H131.5ZM134.5 249.755C134.5 248.927 133.828 248.255 133 248.255C132.172 248.255 131.5 248.927 131.5 249.755H134.5ZM131.5 250.816C131.5 251.645 132.172 252.316 133 252.316C133.828 252.316 134.5 251.645 134.5 250.816H131.5ZM134.5 257.184C134.5 256.355 133.828 255.684 133 255.684C132.172 255.684 131.5 256.355 131.5 257.184H134.5ZM131.5 258.245C131.5 259.073 132.172 259.745 133 259.745C133.828 259.745 134.5 259.073 134.5 258.245H131.5ZM134.5 264.612C134.5 263.784 133.828 263.112 133 263.112C132.172 263.112 131.5 263.784 131.5 264.612H134.5ZM131.5 265.673C131.5 266.502 132.172 267.173 133 267.173C133.828 267.173 134.5 266.502 134.5 265.673H131.5ZM134.5 272.041C134.5 271.212 133.828 270.541 133 270.541C132.172 270.541 131.5 271.212 131.5 272.041H134.5ZM131.5 273.102C131.5 273.93 132.172 274.602 133 274.602C133.828 274.602 134.5 273.93 134.5 273.102H131.5ZM134.5 279.469C134.5 278.641 133.828 277.969 133 277.969C132.172 277.969 131.5 278.641 131.5 279.469H134.5ZM133.482 281.5C134.311 281.5 134.982 280.828 134.982 280C134.982 279.172 134.311 278.5 133.482 278.5V281.5ZM139.268 278.5C138.439 278.5 137.768 279.172 137.768 280C137.768 280.828 138.439 281.5 139.268 281.5V278.5ZM140.232 281.5C141.061 281.5 141.732 280.828 141.732 280C141.732 279.172 141.061 278.5 140.232 278.5V281.5ZM146.018 278.5C145.189 278.5 144.518 279.172 144.518 280C144.518 280.828 145.189 281.5 146.018 281.5V278.5ZM146.982 281.5C147.811 281.5 148.482 280.828 148.482 280C148.482 279.172 147.811 278.5 146.982 278.5V281.5ZM152.768 278.5C151.939 278.5 151.268 279.172 151.268 280C151.268 280.828 151.939 281.5 152.768 281.5V278.5ZM153.732 281.5C154.561 281.5 155.232 280.828 155.232 280C155.232 279.172 154.561 278.5 153.732 278.5V281.5ZM159.518 278.5C158.689 278.5 158.018 279.172 158.018 280C158.018 280.828 158.689 281.5 159.518 281.5V278.5ZM160.482 281.5C161.311 281.5 161.982 280.828 161.982 280C161.982 279.172 161.311 278.5 160.482 278.5V281.5ZM166.268 278.5C165.439 278.5 164.768 279.172 164.768 280C164.768 280.828 165.439 281.5 166.268 281.5V278.5ZM167.232 281.5C168.061 281.5 168.732 280.828 168.732 280C168.732 279.172 168.061 278.5 167.232 278.5V281.5ZM173.018 278.5C172.189 278.5 171.518 279.172 171.518 280C171.518 280.828 172.189 281.5 173.018 281.5V278.5ZM173.982 281.5C174.811 281.5 175.482 280.828 175.482 280C175.482 279.172 174.811 278.5 173.982 278.5V281.5ZM179.768 278.5C178.939 278.5 178.268 279.172 178.268 280C178.268 280.828 178.939 281.5 179.768 281.5V278.5ZM180.732 281.5C181.561 281.5 182.232 280.828 182.232 280C182.232 279.172 181.561 278.5 180.732 278.5V281.5ZM186.518 278.5C185.689 278.5 185.018 279.172 185.018 280C185.018 280.828 185.689 281.5 186.518 281.5V278.5ZM131.5 228V228.531H134.5V228H131.5ZM131.5 234.898V235.959L134.5 235.959V234.898L131.5 234.898ZM131.5 242.327V243.388H134.5V242.327H131.5ZM131.5 249.755V250.816H134.5V249.755H131.5ZM131.5 257.184V258.245H134.5V257.184H131.5ZM131.5 264.612V265.673H134.5V264.612H131.5ZM131.5 272.041V273.102H134.5V272.041H131.5ZM131.5 279.469V280H134.5V279.469H131.5ZM133 281.5H133.482V278.5H133V281.5ZM139.268 281.5H140.232V278.5H139.268V281.5ZM146.018 281.5H146.982V278.5H146.018V281.5ZM152.768 281.5H153.732V278.5H152.768V281.5ZM159.518 281.5H160.482V278.5H159.518V281.5ZM166.268 281.5H167.232V278.5H166.268V281.5ZM173.018 281.5H173.982V278.5H173.018V281.5ZM179.768 281.5H180.732V278.5H179.768V281.5ZM186.518 281.5H187V278.5H186.518V281.5Z" fill="#C4C4C4"/>
<path opacity="0.5" d="M131.5 161C131.5 161.828 132.172 162.5 133 162.5C133.828 162.5 134.5 161.828 134.5 161H131.5ZM134.5 110C134.5 109.172 133.828 108.5 133 108.5C132.172 108.5 131.5 109.172 131.5 110H134.5ZM131.5 110.52C131.5 111.349 132.172 112.02 133 112.02C133.828 112.02 134.5 111.349 134.5 110.52H131.5ZM134.5 116.765C134.5 115.937 133.828 115.265 133 115.265C132.172 115.265 131.5 115.937 131.5 116.765H134.5ZM131.5 117.806C131.5 118.635 132.172 119.306 133 119.306C133.828 119.306 134.5 118.635 134.5 117.806H131.5ZM134.5 124.051C134.5 123.223 133.828 122.551 133 122.551C132.172 122.551 131.5 123.223 131.5 124.051H134.5ZM131.5 125.092C131.5 125.92 132.172 126.592 133 126.592C133.828 126.592 134.5 125.92 134.5 125.092H131.5ZM134.5 131.337C134.5 130.508 133.828 129.837 133 129.837C132.172 129.837 131.5 130.508 131.5 131.337H134.5ZM131.5 132.378C131.5 133.206 132.172 133.878 133 133.878C133.828 133.878 134.5 133.206 134.5 132.378H131.5ZM134.5 138.622C134.5 137.794 133.828 137.122 133 137.122C132.172 137.122 131.5 137.794 131.5 138.622H134.5ZM131.5 139.663C131.5 140.492 132.172 141.163 133 141.163C133.828 141.163 134.5 140.492 134.5 139.663H131.5ZM134.5 145.908C134.5 145.08 133.828 144.408 133 144.408C132.172 144.408 131.5 145.08 131.5 145.908H134.5ZM131.5 146.949C131.5 147.777 132.172 148.449 133 148.449C133.828 148.449 134.5 147.777 134.5 146.949H131.5ZM134.5 153.194C134.5 152.365 133.828 151.694 133 151.694C132.172 151.694 131.5 152.365 131.5 153.194H134.5ZM131.5 154.235C131.5 155.063 132.172 155.735 133 155.735C133.828 155.735 134.5 155.063 134.5 154.235H131.5ZM134.5 160.48C134.5 159.651 133.828 158.98 133 158.98C132.172 158.98 131.5 159.651 131.5 160.48H134.5ZM131.5 110V110.52H134.5V110H131.5ZM131.5 116.765V117.806H134.5V116.765H131.5ZM131.5 124.051V125.092H134.5V124.051H131.5ZM131.5 131.337V132.378H134.5V131.337H131.5ZM131.5 138.622V139.663H134.5V138.622H131.5ZM131.5 145.908V146.949H134.5V145.908H131.5ZM131.5 153.194V154.235H134.5V153.194H131.5ZM131.5 160.48V161H134.5V160.48H131.5Z" fill="#C4C4C4"/>
<mask id="mask0" mask-type="alpha" maskUnits="userSpaceOnUse" x="201" y="132" width="280" height="280">
<circle cx="341" cy="272" r="140" fill="#C4C4C4"/>
</mask>
<g mask="url(#mask0)">
<circle cx="341" cy="272" r="140" fill="url(#paint0_linear)"/>
<g filter="url(#filter0_f)">
<circle cx="341" cy="272" r="74" fill="#F5B842"/>
</g>
<path d="M442.414 202.684C441.85 200.998 440.611 198.975 438.695 199.2C437.681 199.312 436.779 199.986 436.103 200.661C428.665 207.854 422.918 216.733 419.537 226.174C412.888 218.531 402.183 212.237 385.617 209.989C383.025 209.652 369.277 208.528 352.035 207.966C344.597 201.897 335.469 192.568 331.074 195.491C329.609 196.615 329.045 198.862 330.06 200.436C326.228 197.738 323.523 195.153 319.241 193.243C314.17 190.995 312.367 194.929 312.48 196.727C312.592 198.525 313.607 200.211 314.621 201.785C311.691 200.436 305.831 194.254 303.352 197.401C302.45 198.413 302.45 199.649 302.901 200.773C304.478 204.37 307.747 207.067 311.465 208.191C296.59 209.09 283.18 210.888 275.178 214.597C269.882 217.07 265.712 219.992 262.332 223.251C259.063 216.058 254.33 209.315 248.47 203.583C247.794 202.908 247.005 202.122 245.878 202.122C244.075 202.009 242.948 203.92 242.272 205.606C235.285 225.05 233.82 246.179 238.328 266.297C239.23 270.568 240.582 275.064 243.625 278.436C246.555 281.695 251.4 283.606 255.683 282.482C258.162 288.439 261.43 294.171 265.487 299.341C273.263 309.343 293.209 327.101 299.069 344.859C299.069 344.859 299.633 346.77 300.422 349.692C295.576 364.191 285.433 378.914 281.151 395.773C280.137 400.043 279.348 404.427 279.01 408.81C278.785 412.182 278.672 415.778 279.799 419.038C280.813 422.297 283.18 425.332 286.335 426.231C288.251 423.309 289.04 419.487 288.251 415.891C289.265 416.677 288.702 418.476 289.378 419.6C290.167 420.836 291.97 420.499 292.758 419.375C293.547 418.251 293.547 416.677 293.547 415.216C293.435 403.977 294.111 392.513 298.28 382.286C299.633 379.026 301.21 375.205 302.901 371.833C303.126 393.525 297.942 415.216 297.942 441.291C295.35 441.404 292.758 442.977 291.293 445.225C290.279 446.798 290.279 448.709 291.406 450.395C291.857 451.069 293.547 451.631 295.238 451.294C295.463 452.868 296.59 454.216 298.393 454.553C300.196 455.003 303.013 454.553 304.366 453.317C305.718 454.891 307.859 455.677 309.888 455.565C311.916 455.453 313.832 454.216 314.959 452.53C315.635 454.329 317.889 455.453 319.805 455.003C321.72 454.553 323.298 452.868 323.749 450.957C324.425 448.26 324.425 446.124 323.185 442.415C323.862 435.896 324.425 429.827 325.214 424.882C325.665 422.859 326.341 420.499 327.242 418.925L327.355 418.813C327.918 418.026 331.975 412.744 339.864 412.631C339.864 412.631 349.893 412.182 353.725 419.487C353.725 419.487 354.965 421.623 355.866 426.343C356.092 427.804 356.317 429.378 356.542 431.064C356.542 431.513 356.655 432.075 356.655 432.637V432.525C356.993 435.672 357.331 438.931 357.669 442.415C356.542 446.236 356.542 448.372 357.106 451.069C357.557 452.98 359.134 454.666 361.05 455.115C362.966 455.565 365.22 454.441 365.896 452.643C367.023 454.329 368.938 455.565 370.967 455.677C372.995 455.79 375.137 455.003 376.489 453.43C377.841 454.778 380.658 455.115 382.462 454.666C384.265 454.216 385.392 452.98 385.617 451.406C387.307 451.744 388.998 451.182 389.448 450.507C390.688 448.821 390.575 446.911 389.561 445.337C388.209 442.977 385.617 441.516 382.912 441.404C382.8 424.32 380.546 409.147 378.968 394.536C378.968 394.649 378.968 394.761 378.968 394.761C377.165 379.026 377.954 370.597 378.179 368.124C380.208 372.283 382.912 378.127 384.828 382.848C387.983 390.715 389.11 399.369 389.448 408.023C389.448 408.136 389.336 408.248 389.336 408.36C389.336 411.17 389.11 416.003 389.11 416.003C387.758 428.141 390.35 427.467 390.35 427.467C392.717 428.479 394.182 421.286 394.182 421.286C394.182 427.017 395.421 430.389 395.421 430.389C397.224 434.435 400.83 429.49 400.83 429.49C407.592 416.34 403.535 403.078 403.535 403.078C403.197 400.83 402.746 398.582 402.183 396.335C397.45 377.453 385.166 361.156 381.447 344.972C387.082 327.214 407.028 309.456 414.804 299.453C419.312 293.609 422.918 287.09 425.397 280.234C426.186 280.796 426.975 281.245 427.877 281.47C432.497 283.156 437.906 281.021 441.062 277.537C444.217 274.052 445.569 269.557 446.583 265.061C451.204 244.381 449.739 222.577 442.414 202.684Z" fill="#262626"/>
</g>
<circle opacity="0.25" cx="561" cy="291" r="50" fill="#A6D836"/>
<g opacity="0.25">
<circle cx="508" cy="393" r="36" fill="#A463B0"/>
</g>
<circle opacity="0.25" cx="546" cy="144" r="72" fill="#579FF4"/>
<line x1="505.381" y1="287.37" x2="484.37" y2="285.619" stroke="#A6D836" stroke-width="3" stroke-linecap="round" stroke-dasharray="1 6"/>
<line x1="476.815" y1="367.232" x2="459.478" y2="355.236" stroke="#A463B0" stroke-width="3" stroke-linecap="round" stroke-dasharray="1 6"/>
<g opacity="0.7">
<circle opacity="0.25" cx="426" cy="447" r="24" fill="#6B6EF9"/>
<path d="M427 453H424V447H425.5C427.967 447 430 444.967 430 442.5C430 440.033 427.967 438 425.5 438C423.033 438 421 440.033 421 442.5V444H418V442.5C418 438.367 421.367 435 425.5 435C429.633 435 433 438.367 433 442.5C433 446.133 430.433 449.167 427 449.833V453Z" fill="#6B6EF9"/>
<path d="M425.5 459C425.4 459 425.3 459 425.2 458.967C425.1 458.933 425 458.933 424.933 458.9C424.833 458.867 424.767 458.8 424.667 458.767C424.6 458.7 424.5 458.633 424.433 458.567C424.167 458.3 424 457.9 424 457.5C424 457.4 424 457.3 424.033 457.2C424.067 457.1 424.067 457 424.1 456.933C424.133 456.833 424.2 456.767 424.233 456.667C424.3 456.6 424.367 456.5 424.433 456.433C424.5 456.367 424.567 456.3 424.667 456.233C424.733 456.167 424.833 456.133 424.933 456.1C425.033 456.067 425.1 456.033 425.2 456.033C425.7 455.933 426.2 456.1 426.567 456.433C426.633 456.5 426.7 456.567 426.767 456.667C426.833 456.733 426.867 456.833 426.9 456.933C426.933 457.033 426.967 457.1 427 457.2C427.033 457.3 427.033 457.4 427.033 457.5C427.033 457.6 427.033 457.7 427 457.8C426.967 457.9 426.967 458 426.9 458.067C426.867 458.167 426.833 458.233 426.767 458.333C426.7 458.4 426.633 458.5 426.567 458.567C426.5 458.633 426.433 458.7 426.333 458.767C426.267 458.833 426.167 458.867 426.067 458.9C425.967 458.933 425.9 458.967 425.8 458.967C425.7 459 425.6 459 425.5 459Z" fill="#6B6EF9"/>
</g>
<line x1="413.203" y1="421.975" x2="403.909" y2="403.051" stroke="#6B6EF9" stroke-width="3" stroke-linecap="round" stroke-dasharray="1 6"/>
<line x1="482.453" y1="188.05" x2="466.05" y2="197.547" stroke="#579FF4" stroke-width="3" stroke-linecap="round" stroke-dasharray="1 6"/>
<g clip-path="url(#clip0)">
<path d="M507.92 385.669L509.549 388.927L510.653 391.134L513.123 391.502L516.696 392.028L514.121 394.55L512.334 396.285L512.755 398.755L513.385 402.328L510.18 400.647L507.92 399.491L505.712 400.647L502.507 402.328L503.137 398.755L503.558 396.285L501.771 394.55L499.196 392.028L502.769 391.502L505.239 391.134L506.343 388.927L507.92 385.669ZM507.92 375L502.086 386.825L489 388.769L498.46 397.966L496.253 411L507.92 404.851L519.587 411L517.38 397.966L526.839 388.769L513.753 386.877L507.92 375Z" fill="#A463B0"/>
</g>
<path d="M546 285C550.971 285 555 280.971 555 276C555 271.029 550.971 267 546 267C541.029 267 537 271.029 537 276C537 280.971 541.029 285 546 285Z" fill="#A6D836"/>
<path d="M576 315C580.971 315 585 310.971 585 306C585 301.029 580.971 297 576 297C571.029 297 567 301.029 567 306C567 310.971 571.029 315 576 315Z" fill="#A6D836"/>
<path opacity="0.5" d="M537 315V309L579 267H585V273L543 315H537Z" fill="#A6D836"/>
<path d="M260.226 61V56.583H264.02V55.337H260.226V52.166H264.86V50.92H258.98V61H260.226ZM269.132 61.21C271.379 61.21 272.779 59.586 272.779 57.213C272.779 54.875 271.4 53.23 269.132 53.23C266.913 53.23 265.492 54.84 265.492 57.213C265.492 59.558 266.871 61.21 269.132 61.21ZM269.132 60.027C267.606 60.027 266.815 58.921 266.815 57.213C266.815 55.561 267.55 54.413 269.132 54.413C270.679 54.413 271.456 55.512 271.456 57.213C271.456 58.879 270.693 60.027 269.132 60.027ZM276.077 53.902C275.825 54.084 275.601 54.343 275.433 54.637V53.44H274.32V61H275.573V57.206C275.573 56.31 275.755 55.421 276.49 54.896C277.015 54.511 277.694 54.476 278.219 54.609V53.44C277.547 53.293 276.658 53.433 276.077 53.902ZM286.566 54.469V53.44H284.284V51.34H283.038V53.44H281.505V54.469H283.038V58.144C283.038 58.928 282.996 59.502 283.297 60.09C283.822 61.119 285.215 61.273 286.566 61V59.929C285.53 60.09 284.774 60.048 284.438 59.446C284.256 59.131 284.284 58.711 284.284 58.088V54.469H286.566ZM291.734 53.244C290.642 53.244 289.774 53.664 289.214 54.413V50.92H288.094V61H289.354V57.017C289.354 55.267 290.18 54.427 291.433 54.427C293.029 54.427 293.484 55.792 293.484 57.213V61H294.744V56.821C294.744 55.386 294.17 53.244 291.734 53.244ZM303.277 57.57C303.389 54.882 302.059 53.23 299.784 53.23C297.586 53.23 296.144 54.791 296.144 57.269C296.144 59.635 297.607 61.21 299.84 61.21C301.303 61.21 302.556 60.447 303.151 59.11L301.954 58.697C301.534 59.558 300.778 60.027 299.784 60.027C298.391 60.027 297.579 59.138 297.481 57.57H303.277ZM299.826 54.35C301.107 54.35 301.828 55.085 301.982 56.569H297.502C297.677 55.134 298.468 54.35 299.826 54.35ZM313.336 53.44H309.605V52.831C309.605 52.11 309.962 51.746 310.704 51.746H311.593V50.71H310.634C310.06 50.71 309.353 50.731 308.835 51.298C308.387 51.788 308.359 52.446 308.359 53.027V53.44H307.078V54.469H308.359V61H309.605V54.469H313.336V61H314.582V50.71H313.336V53.44ZM322.485 54.707C322.051 53.72 321.022 53.23 319.657 53.23C317.949 53.23 316.892 54.035 316.535 55.358L317.718 55.715C317.991 54.791 318.726 54.392 319.643 54.392C320.952 54.392 321.47 54.966 321.505 56.17C320.385 56.324 319.055 56.485 318.11 56.737C316.962 57.073 316.255 57.766 316.255 58.956C316.255 60.174 317.13 61.21 318.824 61.21C320.084 61.21 321.022 60.748 321.624 59.824V61H322.73V56.324C322.73 55.729 322.695 55.176 322.485 54.707ZM319.013 60.167C317.935 60.167 317.494 59.572 317.494 58.949C317.494 58.242 318.047 57.899 318.67 57.703C319.405 57.493 320.427 57.374 321.491 57.234C321.484 57.577 321.47 58.06 321.365 58.424C321.183 59.362 320.357 60.167 319.013 60.167ZM328.771 54.469V53.44H326.489V51.34H325.243V53.44H323.71V54.469H325.243V58.144C325.243 58.928 325.201 59.502 325.502 60.09C326.027 61.119 327.42 61.273 328.771 61V59.929C327.735 60.09 326.979 60.048 326.643 59.446C326.461 59.131 326.489 58.711 326.489 58.088V54.469H328.771ZM337.064 51.746V50.71H336.105C335.531 50.71 334.824 50.731 334.306 51.298C333.858 51.788 333.83 52.446 333.83 53.027V53.44H332.549V54.469H333.83V61H335.076V54.469H337.064V53.44H335.076V52.831C335.076 52.11 335.433 51.746 336.175 51.746H337.064ZM344.621 57.57C344.733 54.882 343.403 53.23 341.128 53.23C338.93 53.23 337.488 54.791 337.488 57.269C337.488 59.635 338.951 61.21 341.184 61.21C342.647 61.21 343.9 60.447 344.495 59.11L343.298 58.697C342.878 59.558 342.122 60.027 341.128 60.027C339.735 60.027 338.923 59.138 338.825 57.57H344.621ZM341.17 54.35C342.451 54.35 343.172 55.085 343.326 56.569H338.846C339.021 55.134 339.812 54.35 341.17 54.35ZM352.892 57.57C353.004 54.882 351.674 53.23 349.399 53.23C347.201 53.23 345.759 54.791 345.759 57.269C345.759 59.635 347.222 61.21 349.455 61.21C350.918 61.21 352.171 60.447 352.766 59.11L351.569 58.697C351.149 59.558 350.393 60.027 349.399 60.027C348.006 60.027 347.194 59.138 347.096 57.57H352.892ZM349.441 54.35C350.722 54.35 351.443 55.085 351.597 56.569H347.117C347.292 55.134 348.083 54.35 349.441 54.35ZM360.473 61.21C362.72 61.21 364.12 59.586 364.12 57.213C364.12 54.875 362.741 53.23 360.473 53.23C358.254 53.23 356.833 54.84 356.833 57.213C356.833 59.558 358.212 61.21 360.473 61.21ZM360.473 60.027C358.947 60.027 358.156 58.921 358.156 57.213C358.156 55.561 358.891 54.413 360.473 54.413C362.02 54.413 362.797 55.512 362.797 57.213C362.797 58.879 362.034 60.027 360.473 60.027ZM369.617 51.746V50.71H368.658C368.084 50.71 367.377 50.731 366.859 51.298C366.411 51.788 366.383 52.446 366.383 53.027V53.44H365.102V54.469H366.383V61H367.629V54.469H369.617V53.44H367.629V52.831C367.629 52.11 367.986 51.746 368.728 51.746H369.617ZM376.694 54.511C376.015 54.511 375.336 54.742 374.811 55.162L374.993 52.103H379.284V50.92H373.873L373.565 56.191L374.671 56.611C375.035 56.086 375.665 55.659 376.554 55.659C377.73 55.659 378.731 56.611 378.731 57.829C378.731 59.012 377.779 59.999 376.554 59.999C375.616 59.999 374.706 59.376 374.454 58.382L373.257 58.704C373.663 60.174 374.958 61.21 376.519 61.21C378.395 61.21 379.984 59.691 379.984 57.829C379.984 55.953 378.563 54.511 376.694 54.511ZM387.678 61.77C386.884 61.77 386.138 61.6207 385.438 61.322C384.738 61.0233 384.122 60.6127 383.59 60.09C383.067 59.558 382.656 58.942 382.358 58.242C382.059 57.542 381.91 56.7953 381.91 56.002C381.91 55.1993 382.059 54.4527 382.358 53.762C382.656 53.062 383.067 52.4507 383.59 51.928C384.122 51.396 384.738 50.9807 385.438 50.682C386.138 50.3833 386.884 50.234 387.678 50.234C388.48 50.234 389.227 50.3833 389.918 50.682C390.618 50.9807 391.229 51.396 391.752 51.928C392.284 52.4507 392.699 53.062 392.998 53.762C393.296 54.4527 393.446 55.1993 393.446 56.002C393.446 56.7953 393.296 57.542 392.998 58.242C392.699 58.942 392.284 59.558 391.752 60.09C391.229 60.6127 390.618 61.0233 389.918 61.322C389.227 61.6207 388.48 61.77 387.678 61.77ZM387.678 60.986C388.368 60.986 389.012 60.86 389.61 60.608C390.216 60.3467 390.748 59.9873 391.206 59.53C391.663 59.0727 392.018 58.5453 392.27 57.948C392.531 57.3413 392.662 56.6927 392.662 56.002C392.662 55.3113 392.531 54.6673 392.27 54.07C392.018 53.4633 391.663 52.9313 391.206 52.474C390.748 52.0167 390.216 51.662 389.61 51.41C389.012 51.1487 388.368 51.018 387.678 51.018C386.987 51.018 386.338 51.1487 385.732 51.41C385.134 51.662 384.607 52.0167 384.15 52.474C383.692 52.9313 383.333 53.4633 383.072 54.07C382.82 54.6673 382.694 55.3113 382.694 56.002C382.694 56.6927 382.82 57.3413 383.072 57.948C383.333 58.5453 383.692 59.0727 384.15 59.53C384.607 59.9873 385.134 60.3467 385.732 60.608C386.338 60.86 386.987 60.986 387.678 60.986ZM385.256 58.956V52.964H386.278L389.204 57.584C389.204 57.3973 389.199 57.2153 389.19 57.038C389.18 56.8513 389.176 56.6693 389.176 56.492V52.964H390.1V58.956H389.078L386.152 54.322C386.152 54.5087 386.156 54.7 386.166 54.896C386.175 55.0827 386.18 55.2693 386.18 55.456V58.956H385.256ZM395.518 62.568C396.386 62.729 396.89 62.19 396.89 61.21V59.418H395.518V61H396.239C396.288 61.56 396.176 62.029 395.595 61.987L395.518 62.568ZM402.896 53.44H401.587L404.653 60.972L403.407 64.36H404.618L408.734 53.44H407.467L405.255 59.39L402.896 53.44ZM412.837 61.21C415.084 61.21 416.484 59.586 416.484 57.213C416.484 54.875 415.105 53.23 412.837 53.23C410.618 53.23 409.197 54.84 409.197 57.213C409.197 59.558 410.576 61.21 412.837 61.21ZM412.837 60.027C411.311 60.027 410.52 58.921 410.52 57.213C410.52 55.561 411.255 54.413 412.837 54.413C414.384 54.413 415.161 55.512 415.161 57.213C415.161 58.879 414.398 60.027 412.837 60.027ZM423.275 57.423C423.275 59.173 422.449 60.013 421.196 60.013C419.6 60.013 419.145 58.648 419.145 57.227V53.44H417.885V57.619C417.885 59.054 418.459 61.196 420.895 61.196C421.987 61.196 422.855 60.776 423.415 60.027V61H424.528V53.44H423.275V57.423ZM262.165 82.21C263.726 82.21 264.867 81.447 265.399 80.033L264.139 79.704C263.796 80.565 263.145 81.027 262.165 81.027C260.66 81.027 259.897 79.907 259.883 78.22C259.897 76.582 260.611 75.413 262.165 75.413C263.082 75.413 263.845 75.924 264.167 76.799L265.399 76.428C265 75.07 263.768 74.23 262.179 74.23C259.904 74.23 258.581 75.861 258.56 78.22C258.581 80.537 259.862 82.21 262.165 82.21ZM272.569 75.707C272.135 74.72 271.106 74.23 269.741 74.23C268.033 74.23 266.976 75.035 266.619 76.358L267.802 76.715C268.075 75.791 268.81 75.392 269.727 75.392C271.036 75.392 271.554 75.966 271.589 77.17C270.469 77.324 269.139 77.485 268.194 77.737C267.046 78.073 266.339 78.766 266.339 79.956C266.339 81.174 267.214 82.21 268.908 82.21C270.168 82.21 271.106 81.748 271.708 80.824V82H272.814V77.324C272.814 76.729 272.779 76.176 272.569 75.707ZM269.097 81.167C268.019 81.167 267.578 80.572 267.578 79.949C267.578 79.242 268.131 78.899 268.754 78.703C269.489 78.493 270.511 78.374 271.575 78.234C271.568 78.577 271.554 79.06 271.449 79.424C271.267 80.362 270.441 81.167 269.097 81.167ZM278.267 74.244C277.175 74.244 276.307 74.664 275.747 75.413V74.44H274.627V82H275.887V78.017C275.887 76.267 276.713 75.427 277.966 75.427C279.562 75.427 280.017 76.792 280.017 78.213V82H281.277V77.821C281.277 76.386 280.703 74.244 278.267 74.244ZM293.649 74.244C292.655 74.244 291.808 74.713 291.36 75.49C290.954 74.699 290.177 74.244 289.155 74.244C288.252 74.244 287.482 74.629 287.006 75.245V74.44H285.893V82H287.146V77.198C287.146 76.092 287.804 75.357 288.791 75.357C289.778 75.357 290.429 76.064 290.429 77.212L290.422 82H291.661L291.668 77.198C291.668 75.924 292.473 75.357 293.32 75.357C294.272 75.357 294.944 76.036 294.944 77.163L294.937 82H296.183L296.19 76.89C296.19 75.28 295.224 74.244 293.649 74.244ZM299.399 73.103V71.815H298.153V73.103H299.399ZM299.399 82V74.44H298.153V82H299.399ZM305.133 74.244C304.041 74.244 303.173 74.664 302.613 75.413V74.44H301.493V82H302.753V78.017C302.753 76.267 303.579 75.427 304.832 75.427C306.428 75.427 306.883 76.792 306.883 78.213V82H308.143V77.821C308.143 76.386 307.569 74.244 305.133 74.244ZM314.183 75.469V74.44H311.901V72.34H310.655V74.44H309.122V75.469H310.655V79.144C310.655 79.928 310.613 80.502 310.914 81.09C311.439 82.119 312.832 82.273 314.183 82V80.929C313.147 81.09 312.391 81.048 312.055 80.446C311.873 80.131 311.901 79.711 311.901 79.088V75.469H314.183ZM319.06 74.44H317.751L320.817 81.972L319.571 85.36H320.782L324.898 74.44H323.631L321.419 80.39L319.06 74.44ZM329.001 82.21C331.248 82.21 332.648 80.586 332.648 78.213C332.648 75.875 331.269 74.23 329.001 74.23C326.782 74.23 325.361 75.84 325.361 78.213C325.361 80.558 326.74 82.21 329.001 82.21ZM329.001 81.027C327.475 81.027 326.684 79.921 326.684 78.213C326.684 76.561 327.419 75.413 329.001 75.413C330.548 75.413 331.325 76.512 331.325 78.213C331.325 79.879 330.562 81.027 329.001 81.027ZM339.439 78.423C339.439 80.173 338.613 81.013 337.36 81.013C335.764 81.013 335.309 79.648 335.309 78.227V74.44H334.049V78.619C334.049 80.054 334.623 82.196 337.059 82.196C338.151 82.196 339.019 81.776 339.579 81.027V82H340.692V74.44H339.439V78.423ZM344.409 74.902C344.157 75.084 343.933 75.343 343.765 75.637V74.44H342.652V82H343.905V78.206C343.905 77.31 344.087 76.421 344.822 75.896C345.347 75.511 346.026 75.476 346.551 75.609V74.44C345.879 74.293 344.99 74.433 344.409 74.902ZM353.897 82.21C356.144 82.21 357.544 80.586 357.544 78.213C357.544 75.875 356.165 74.23 353.897 74.23C351.678 74.23 350.257 75.84 350.257 78.213C350.257 80.558 351.636 82.21 353.897 82.21ZM353.897 81.027C352.371 81.027 351.58 79.921 351.58 78.213C351.58 76.561 352.315 75.413 353.897 75.413C355.444 75.413 356.221 76.512 356.221 78.213C356.221 79.879 355.458 81.027 353.897 81.027ZM361.458 82L363.285 76.253L365.112 82H366.148L368.458 74.44H367.226L365.532 79.97L363.838 74.44H362.739L361.038 79.97L359.351 74.44L358.112 74.433L360.422 82H361.458ZM373.355 74.244C372.263 74.244 371.395 74.664 370.835 75.413V74.44H369.715V82H370.975V78.017C370.975 76.267 371.801 75.427 373.054 75.427C374.65 75.427 375.105 76.792 375.105 78.213V82H376.365V77.821C376.365 76.386 375.791 74.244 373.355 74.244ZM382.248 74.118L387.505 82H388.765V71.92H387.505V79.795L382.248 71.92H380.988V82H382.248V74.118ZM397.435 78.57C397.547 75.882 396.217 74.23 393.942 74.23C391.744 74.23 390.302 75.791 390.302 78.269C390.302 80.635 391.765 82.21 393.998 82.21C395.461 82.21 396.714 81.447 397.309 80.11L396.112 79.697C395.692 80.558 394.936 81.027 393.942 81.027C392.549 81.027 391.737 80.138 391.639 78.57H397.435ZM393.984 75.35C395.265 75.35 395.986 76.085 396.14 77.569H391.66C391.835 76.134 392.626 75.35 393.984 75.35ZM404.667 75.707C404.233 74.72 403.204 74.23 401.839 74.23C400.131 74.23 399.074 75.035 398.717 76.358L399.9 76.715C400.173 75.791 400.908 75.392 401.825 75.392C403.134 75.392 403.652 75.966 403.687 77.17C402.567 77.324 401.237 77.485 400.292 77.737C399.144 78.073 398.437 78.766 398.437 79.956C398.437 81.174 399.312 82.21 401.006 82.21C402.266 82.21 403.204 81.748 403.806 80.824V82H404.912V77.324C404.912 76.729 404.877 76.176 404.667 75.707ZM401.195 81.167C400.117 81.167 399.676 80.572 399.676 79.949C399.676 79.242 400.229 78.899 400.852 78.703C401.587 78.493 402.609 78.374 403.673 78.234C403.666 78.577 403.652 79.06 403.547 79.424C403.365 80.362 402.539 81.167 401.195 81.167ZM408.489 74.902C408.237 75.084 408.013 75.343 407.845 75.637V74.44H406.732V82H407.985V78.206C407.985 77.31 408.167 76.421 408.902 75.896C409.427 75.511 410.106 75.476 410.631 75.609V74.44C409.959 74.293 409.07 74.433 408.489 74.902ZM413.215 82V78.36L416.652 82H418.395L414.664 78.22L418.003 74.44H416.386L413.215 78.08V71.92H411.955L411.948 82H413.215ZM424.901 75.707C424.467 74.72 423.438 74.23 422.073 74.23C420.365 74.23 419.308 75.035 418.951 76.358L420.134 76.715C420.407 75.791 421.142 75.392 422.059 75.392C423.368 75.392 423.886 75.966 423.921 77.17C422.801 77.324 421.471 77.485 420.526 77.737C419.378 78.073 418.671 78.766 418.671 79.956C418.671 81.174 419.546 82.21 421.24 82.21C422.5 82.21 423.438 81.748 424.04 80.824V82H425.146V77.324C425.146 76.729 425.111 76.176 424.901 75.707ZM421.429 81.167C420.351 81.167 419.91 80.572 419.91 79.949C419.91 79.242 420.463 78.899 421.086 78.703C421.821 78.493 422.843 78.374 423.907 78.234C423.9 78.577 423.886 79.06 423.781 79.424C423.599 80.362 422.773 81.167 421.429 81.167ZM431.187 75.469V74.44H428.905V72.34H427.659V74.44H426.126V75.469H427.659V79.144C427.659 79.928 427.617 80.502 427.918 81.09C428.443 82.119 429.836 82.273 431.187 82V80.929C430.151 81.09 429.395 81.048 429.059 80.446C428.877 80.131 428.905 79.711 428.905 79.088V75.469H431.187ZM434.318 82V80.628H432.946V82H434.318Z" fill="#C4C4C4"/>
<g filter="url(#filter1_d)">
<rect x="30" y="30" width="204" height="72" rx="36" fill="#CB015B"/>
<path d="M65.6064 79.54C73.1484 79.54 77.4324 74.284 77.4324 67.066C77.4324 66.886 77.4144 65.986 77.3604 65.536H68.3244V68.56H73.3644C72.8424 73.366 70.2684 76.012 65.8224 75.958C60.3144 75.922 57.5424 71.98 57.5604 66.04C57.5784 60.1 60.3144 56.086 65.8224 56.122C69.3864 56.158 71.7624 58.138 72.8064 61.234L76.6224 60.55C75.2904 55.564 71.6904 52.558 65.6064 52.558C58.5144 52.558 53.5644 57.67 53.5644 66.04C53.5644 74.536 58.6584 79.54 65.6064 79.54ZM98.462 70.342C98.858 63.376 95.402 59.02 89.462 59.02C83.774 59.02 79.94 63.07 79.94 69.442C79.94 75.454 83.828 79.54 89.642 79.54C93.404 79.54 96.698 77.542 98.21 74.068L94.52 72.898C93.566 74.896 91.802 75.994 89.462 75.994C86.186 75.994 84.278 73.96 83.972 70.342H98.462ZM89.606 62.35C92.594 62.35 94.214 63.97 94.61 67.408H84.062C84.548 64.114 86.402 62.35 89.606 62.35ZM111.747 59.038C108.939 59.038 106.743 60.082 105.321 61.882V59.56H101.955V79H105.771V68.884C105.771 64.276 108.003 62.602 110.703 62.602C114.843 62.602 115.617 66.418 115.617 69.442V79H119.433V68.2C119.433 65.194 118.443 59.038 111.747 59.038ZM141.317 70.342C141.713 63.376 138.257 59.02 132.317 59.02C126.629 59.02 122.795 63.07 122.795 69.442C122.795 75.454 126.683 79.54 132.497 79.54C136.259 79.54 139.553 77.542 141.065 74.068L137.375 72.898C136.421 74.896 134.657 75.994 132.317 75.994C129.041 75.994 127.133 73.96 126.827 70.342H141.317ZM132.461 62.35C135.449 62.35 137.069 63.97 137.465 67.408H126.917C127.403 64.114 129.257 62.35 132.461 62.35ZM150.504 60.658C149.766 61.144 149.154 61.846 148.704 62.656V59.56H145.356V79H149.154V69.19C149.154 66.904 149.766 64.852 151.602 63.682C152.898 62.854 154.59 62.746 155.85 63.088V59.56C154.104 59.236 151.962 59.578 150.504 60.658ZM173.888 62.728C172.682 60.172 169.982 59.02 166.508 59.02C162.008 59.02 159.308 61.144 158.372 64.474L161.882 65.554C162.548 63.394 164.42 62.494 166.472 62.494C169.514 62.494 170.738 63.754 170.864 66.436C167.714 66.868 164.51 67.282 162.26 67.948C159.254 68.902 157.67 70.774 157.67 73.708C157.67 76.876 159.938 79.54 164.24 79.54C167.39 79.54 169.64 78.46 171.242 76.174V79H174.572V67.03C174.572 65.41 174.5 64.006 173.888 62.728ZM164.906 76.462C162.494 76.462 161.396 75.184 161.396 73.672C161.396 72.142 162.53 71.314 164.078 70.792C165.716 70.306 167.894 70 170.828 69.568C170.81 70.468 170.738 71.71 170.432 72.61C170 74.5 168.11 76.462 164.906 76.462ZM190.371 62.584V59.56H184.593V54.16H180.813V59.56H177.087V62.584H180.813V71.35C180.813 73.474 180.687 75.04 181.533 76.642C182.955 79.342 186.717 79.72 190.371 79V75.814C187.833 76.192 185.853 76.138 184.989 74.662C184.521 73.87 184.593 72.736 184.593 71.17V62.584H190.371ZM210.997 70.342C211.393 63.376 207.937 59.02 201.997 59.02C196.309 59.02 192.475 63.07 192.475 69.442C192.475 75.454 196.363 79.54 202.177 79.54C205.939 79.54 209.233 77.542 210.745 74.068L207.055 72.898C206.101 74.896 204.337 75.994 201.997 75.994C198.721 75.994 196.813 73.96 196.507 70.342H210.997ZM202.141 62.35C205.129 62.35 206.749 63.97 207.145 67.408H196.597C197.083 64.114 198.937 62.35 202.141 62.35Z" fill="white"/>
</g>
<path d="M106 198.824C104.56 198.824 103.208 198.552 101.944 198.008C100.696 197.48 99.592 196.744 98.632 195.8C97.688 194.84 96.944 193.736 96.4 192.488C95.872 191.224 95.608 189.872 95.608 188.432C95.608 186.992 95.872 185.648 96.4 184.4C96.944 183.136 97.688 182.032 98.632 181.088C99.592 180.128 100.696 179.384 101.944 178.856C103.208 178.312 104.56 178.04 106 178.04C107.44 178.04 108.784 178.312 110.032 178.856C111.296 179.384 112.4 180.128 113.344 181.088C114.304 182.032 115.048 183.136 115.576 184.4C116.12 185.648 116.392 186.992 116.392 188.432C116.392 189.872 116.12 191.224 115.576 192.488C115.048 193.736 114.304 194.84 113.344 195.8C112.4 196.744 111.296 197.48 110.032 198.008C108.784 198.552 107.44 198.824 106 198.824ZM106 196.688C107.152 196.688 108.224 196.48 109.216 196.064C110.208 195.632 111.08 195.04 111.832 194.288C112.6 193.52 113.192 192.64 113.608 191.648C114.04 190.656 114.256 189.584 114.256 188.432C114.256 187.28 114.04 186.208 113.608 185.216C113.192 184.224 112.6 183.352 111.832 182.6C111.08 181.832 110.208 181.24 109.216 180.824C108.224 180.392 107.152 180.176 106 180.176C104.848 180.176 103.776 180.392 102.784 180.824C101.792 181.24 100.912 181.832 100.144 182.6C99.392 183.352 98.8 184.224 98.368 185.216C97.952 186.208 97.744 187.28 97.744 188.432C97.744 189.584 97.952 190.656 98.368 191.648C98.8 192.64 99.392 193.52 100.144 194.288C100.912 195.04 101.792 195.632 102.784 196.064C103.776 196.48 104.848 196.688 106 196.688ZM101.68 193.256V183.584H104.368L108.4 190.64C108.4 190.304 108.392 189.944 108.376 189.56C108.36 189.16 108.352 188.808 108.352 188.504V183.584H110.32V193.256H107.632L103.552 186.104C103.568 186.424 103.584 186.792 103.6 187.208C103.632 187.624 103.648 188 103.648 188.336V193.256H101.68Z" fill="#CB015B"/>
<path d="M134.408 189.8C132.368 189.8 130.208 190.448 128.504 191.672L129.08 182.168H143.24V177.44H124.592L123.536 195.608L127.904 197.144C128.984 195.704 130.928 194.36 133.76 194.36C137.456 194.36 140.552 197.336 140.552 201.128C140.552 204.824 137.552 207.872 133.76 207.872C130.88 207.872 128.024 205.928 127.232 202.856L122.408 204.152C123.824 209.192 128.288 212.72 133.616 212.72C140.072 212.72 145.616 207.56 145.616 201.128C145.616 194.648 140.864 189.8 134.408 189.8Z" fill="white"/>
<path d="M320.122 280.944C320.122 279.432 320.068 278.658 320.716 277.524C321.436 276.246 323.092 275.364 324.298 274.068C325.72 272.592 326.656 270.72 326.656 268.578C326.656 266.85 326.098 265.212 324.982 263.97C323.506 262.26 321.202 261.558 318.754 261.558C316.9 261.558 314.974 262.116 313.57 263.304C312.04 264.528 311.194 266.544 311.05 268.614H314.398C314.38 267.48 314.722 266.436 315.514 265.734C316.27 264.978 317.494 264.618 318.826 264.618C320.212 264.618 321.58 264.978 322.444 266.04C323.002 266.688 323.254 267.57 323.254 268.632C323.254 269.874 323.002 270.936 322.066 271.998C320.428 273.744 318.664 274.338 317.638 276.336C316.864 277.74 316.72 279.144 316.72 280.944H320.122ZM320.122 288V284.058H316.738V288H320.122ZM343.565 278.616C343.565 276.672 343.541 275.784 344.405 274.296C345.293 272.784 347.093 271.704 348.677 270.024C350.693 267.912 352.133 265.32 352.133 262.248C352.133 259.992 351.365 257.76 349.901 256.104C347.885 253.728 344.693 252.744 341.309 252.744C338.933 252.744 336.437 253.464 334.589 254.928C332.405 256.56 331.109 259.368 330.845 262.344H336.125C336.101 260.904 336.533 259.632 337.541 258.792C338.453 257.928 339.917 257.52 341.477 257.52C343.181 257.52 344.837 257.976 345.869 259.272C346.517 260.064 346.805 261.12 346.805 262.344C346.805 264.024 346.469 265.392 345.197 266.808C342.893 269.256 340.853 269.904 339.557 272.496C338.525 274.32 338.237 276.312 338.237 278.616H343.565ZM343.565 288V282.192H338.261V288H343.565ZM365.427 280.944C365.427 279.432 365.373 278.658 366.021 277.524C366.741 276.246 368.397 275.364 369.603 274.068C371.025 272.592 371.961 270.72 371.961 268.578C371.961 266.85 371.403 265.212 370.287 263.97C368.811 262.26 366.507 261.558 364.059 261.558C362.205 261.558 360.279 262.116 358.875 263.304C357.345 264.528 356.499 266.544 356.355 268.614H359.703C359.685 267.48 360.027 266.436 360.819 265.734C361.575 264.978 362.799 264.618 364.131 264.618C365.517 264.618 366.885 264.978 367.749 266.04C368.307 266.688 368.559 267.57 368.559 268.632C368.559 269.874 368.307 270.936 367.371 271.998C365.733 273.744 363.969 274.338 362.943 276.336C362.169 277.74 362.025 279.144 362.025 280.944H365.427ZM365.427 288V284.058H362.043V288H365.427Z" fill="#CB015B"/>
<path opacity="0.5" d="M537 144C541.971 144 546 139.971 546 135C546 130.029 541.971 126 537 126C532.029 126 528 130.029 528 135C528 139.971 532.029 144 537 144Z" fill="#579FF4"/>
<path d="M537 117C546.9 117 555 125.1 555 135C555 136.8 554.7 138.5 554.2 140.2L552.6 145.4L556.4 149.2L573 165.7V171H567.7L551.2 154.5L547.4 150.7L542.2 152.3C540.5 152.7 538.8 153 537 153C527.1 153 519 144.9 519 135C519 125.1 527.1 117 537 117ZM537 108C522.1 108 510 120.1 510 135C510 149.9 522.1 162 537 162C539.7 162 542.4 161.6 544.8 160.8L564 180H582V162L562.8 142.8C563.6 140.3 564 137.7 564 135C564 120.1 551.9 108 537 108Z" fill="#579FF4"/>
<path opacity="0.5" d="M555 153H546V162H555V153Z" fill="#579FF4"/>
<path opacity="0.5" d="M564 162H555V171H564V162Z" fill="#579FF4"/>
<defs>
<filter id="filter0_f" x="167" y="98" width="348" height="348" filterUnits="userSpaceOnUse" color-interpolation-filters="sRGB">
<feFlood flood-opacity="0" result="BackgroundImageFix"/>
<feBlend mode="normal" in="SourceGraphic" in2="BackgroundImageFix" result="shape"/>
<feGaussianBlur stdDeviation="50" result="effect1_foregroundBlur"/>
</filter>
<filter id="filter1_d" x="0" y="0" width="264" height="132" filterUnits="userSpaceOnUse" color-interpolation-filters="sRGB">
<feFlood flood-opacity="0" result="BackgroundImageFix"/>
<feColorMatrix in="SourceAlpha" type="matrix" values="0 0 0 0 0 0 0 0 0 0 0 0 0 0 0 0 0 0 127 0" result="hardAlpha"/>
<feOffset/>
<feGaussianBlur stdDeviation="15"/>
<feColorMatrix type="matrix" values="0 0 0 0 0.796078 0 0 0 0 0.00392157 0 0 0 0 0.356863 0 0 0 1 0"/>
<feBlend mode="normal" in2="BackgroundImageFix" result="effect1_dropShadow"/>
<feBlend mode="normal" in="SourceGraphic" in2="effect1_dropShadow" result="shape"/>
</filter>
<linearGradient id="paint0_linear" x1="341" y1="132" x2="341" y2="412" gradientUnits="userSpaceOnUse">
<stop stop-color="#98144E"/>
<stop offset="1" stop-color="#CB015B"/>
</linearGradient>
<clipPath id="clip0">
<rect width="37.8394" height="36" fill="white" transform="translate(489 375)"/>
</clipPath>
</defs>
</svg>
