<svg width="311" height="253" viewBox="0 0 311 253" fill="none" xmlns="http://www.w3.org/2000/svg">
<g opacity="0.5">
<circle r="20.6038" transform="matrix(-1 -8.74228e-08 -8.74228e-08 1 207.396 126.019)" fill="white"/>
<circle r="20.6038" transform="matrix(-1 -8.74228e-08 -8.74228e-08 1 180.981 103.302)" fill="white"/>
<g filter="url(#filter0_f)">
<ellipse rx="55.4695" ry="24.6979" transform="matrix(0.987525 -0.157462 -0.157462 -0.987525 155.578 126.175)" fill="url(#paint0_linear)"/>
</g>
<circle r="20.6038" transform="matrix(-1 -8.74228e-08 -8.74228e-08 1 108.604 126.019)" fill="white"/>
<circle r="33.8113" transform="matrix(-1 -8.74228e-08 -8.74228e-08 1 136.604 112.811)" fill="white"/>
<circle r="33.8113" transform="matrix(-1 -8.74228e-08 -8.74228e-08 1 170.415 137.113)" fill="white"/>
</g>
<defs>
<filter id="filter0_f" x="0.660736" y="0.261322" width="309.835" height="251.827" filterUnits="userSpaceOnUse" color-interpolation-filters="sRGB">
<feFlood flood-opacity="0" result="BackgroundImageFix"/>
<feBlend mode="normal" in="SourceGraphic" in2="BackgroundImageFix" result="shape"/>
<feGaussianBlur stdDeviation="50" result="effect1_foregroundBlur"/>
</filter>
<linearGradient id="paint0_linear" x1="99.3973" y1="33.9066" x2="10.3394" y2="8.26463" gradientUnits="userSpaceOnUse">
<stop stop-color="#E2F5FF"/>
<stop offset="1" stop-color="#D7DBFF"/>
</linearGradient>
</defs>
</svg>
