<svg width="18" height="16" viewBox="0 0 18 16" fill="none" xmlns="http://www.w3.org/2000/svg">
<path opacity="0.5" d="M9 10.125C8.375 10.125 7.875 9.625 7.875 9V3.5C7.875 2.875 8.375 2.375 9 2.375C9.625 2.375 10.125 2.875 10.125 3.5V9C10.125 9.625 9.625 10.125 9 10.125Z" fill="#C4C4C4"/>
<path d="M13.675 1.5C15.225 1.5 16.5 2.775 16.5 4.325V7.5H15.75H14.25V9V14.25H3.75V9V7.5H2.25H1.5V4.325C1.5 2.775 2.775 1.5 4.325 1.5H5.575C6.15 2.825 7.475 3.75 9 3.75C10.525 3.75 11.85 2.825 12.425 1.5H13.675ZM13.675 0H11.25C11.25 1.25 10.25 2.25 9 2.25C7.75 2.25 6.75 1.25 6.75 0H4.325C1.925 0 0 1.925 0 4.325V9H2.25V15.75H15.75V9H18V4.325C18 1.925 16.075 0 13.675 0Z" fill="#C4C4C4"/>
</svg>
