<svg width="18" height="16" viewBox="0 0 18 16" fill="none" xmlns="http://www.w3.org/2000/svg">
<path d="M6.8 1.5C7.025 1.5 7.25 1.55 7.45 1.65C7.925 1.875 8.475 2 9 2C9.525 2 10.075 1.875 10.55 1.65C10.775 1.55 11 1.5 11.2 1.5C11.575 1.675 13.025 3.5 13.95 7.85L14.075 8.475L14.6 8.825C15.025 9.1 15.425 9.3 15.725 9.475C16 9.625 16.35 9.825 16.45 9.925C16.45 9.95 16.475 10.025 16.475 10.15C16.475 11.45 15.275 12.4 14.55 12.85C13.1 13.75 11.075 14.275 8.975 14.275C6.875 14.275 4.85 13.75 3.4 12.85C2.675 12.4 1.475 11.45 1.475 10.15C1.475 10 1.5 9.95 1.5 9.925C1.6 9.825 1.95 9.625 2.225 9.475C2.525 9.3 2.925 9.1 3.35 8.825L3.875 8.475L4 7.85C4.95 3.5 6.425 1.675 6.8 1.5ZM11.25 0C10.775 0 10.325 0.0999992 9.925 0.299999C9.625 0.424999 9.325 0.5 9 0.5C8.675 0.5 8.375 0.424999 8.075 0.299999C7.65 0.0999992 7.2 0 6.75 0C4.85 0 3.225 4.425 2.575 7.525C0.975 8.55 0 8.6 0 10.125C0 13.225 4.025 15.75 9 15.75C13.975 15.75 18 13.225 18 10.125C18 8.6 17.025 8.55 15.425 7.525C14.775 4.425 13.15 0 11.25 0Z" fill="#C4C4C4"/>
</svg>
