<svg width="208" height="20" viewBox="0 0 208 20" fill="none" xmlns="http://www.w3.org/2000/svg">
<g clip-path="url(#clip0)">
<path d="M16.7036 0.304718V19.6953C16.7036 19.8615 16.5928 19.9723 16.4266 19.9723H14.4044C13.4626 19.9723 12.5762 19.5014 12.0776 18.6981L2.93629 4.54295L3.2133 11.6344V19.6953C3.2133 19.8615 3.10249 19.9723 2.93629 19.9723H0.277008C0.110803 19.9723 0 19.8615 0 19.6953V0.304718C0 0.138513 0.110803 0.02771 0.277008 0.02771H2.27147C3.2133 0.02771 4.07202 0.498624 4.59834 1.30195L13.7396 15.4294L13.4626 8.39336V0.304718C13.4626 0.138513 13.5734 0.02771 13.7396 0.02771H16.3989C16.5651 0.02771 16.7036 0.166214 16.7036 0.304718Z" fill="#262626"/>
<path d="M43.9612 19.9723H41.1357C40.9418 19.9723 40.8033 19.7784 40.8864 19.5845L48.3656 0.277008C48.421 0.110803 48.5872 0 48.7535 0H52.2992C52.4654 0 52.6316 0.110803 52.687 0.277008L60.1662 19.5845C60.2493 19.7784 60.1108 19.9723 59.9169 19.9723H57.0914C56.9806 19.9723 56.8698 19.8892 56.8421 19.8061L50.8033 3.90582C50.7202 3.65651 50.3878 3.65651 50.277 3.90582L44.2382 19.8061C44.1828 19.9169 44.072 19.9723 43.9612 19.9723Z" fill="#262626"/>
<path d="M110.083 19.9723H107.258C107.064 19.9723 106.925 19.7784 107.008 19.5845L114.488 0.277008C114.543 0.110803 114.709 0 114.875 0H118.421C118.587 0 118.753 0.110803 118.809 0.277008L126.288 19.5845C126.371 19.7784 126.233 19.9723 126.039 19.9723H123.213C123.102 19.9723 122.992 19.8892 122.964 19.8061L116.925 3.90582C116.842 3.65651 116.51 3.65651 116.399 3.90582L110.36 19.8061C110.305 19.9169 110.194 19.9723 110.083 19.9723Z" fill="#262626"/>
<path d="M80.277 19.5291L74.6815 12.3823C77.8394 11.7728 79.6953 9.63988 79.6953 6.37118C79.6953 2.60387 77.2576 0.0553894 72.9086 0.0553894H65.097C64.8754 0.0553894 64.6815 0.249295 64.6815 0.470902C64.6815 1.93905 65.8726 3.13018 67.3407 3.13018H72.5762C75.2078 3.13018 76.4543 4.45982 76.4543 6.39888C76.4543 8.33794 75.2355 9.69528 72.5762 9.69528H65.097C64.8754 9.69528 64.6815 9.88919 64.6815 10.1108V19.6953C64.6815 19.8615 64.7923 19.9723 64.9585 19.9723H67.6177C67.784 19.9723 67.8948 19.8615 67.8948 19.6953V12.5485H70.9695L75.8449 18.892C76.3712 19.5845 77.1745 19.9723 78.0333 19.9723H80.0554C80.277 19.9723 80.4155 19.6953 80.277 19.5291Z" fill="#262626"/>
<path d="M35.5125 0.02771H23.1302C22.9363 0.02771 22.7701 0.193915 22.7701 0.387821C22.7701 1.88367 23.9889 3.1025 25.4848 3.1025H35.5125C35.6787 3.1025 35.7895 2.9917 35.7895 2.82549V0.304718C35.7895 0.166214 35.6787 0.02771 35.5125 0.02771ZM35.5125 16.8975H26.2604C26.0942 16.8975 25.9834 16.7867 25.9834 16.6205V11.6067C25.9834 11.4405 26.0942 11.3297 26.2604 11.3297H34.7922C34.9584 11.3297 35.0693 11.2188 35.0693 11.0526V8.53187C35.0693 8.36566 34.9584 8.25486 34.7922 8.25486H23.1856C22.964 8.25486 22.7701 8.44876 22.7701 8.67037V19.5568C22.7701 19.7784 22.964 19.9723 23.1856 19.9723H35.5125C35.6787 19.9723 35.7895 19.8615 35.7895 19.6953V17.1745C35.7895 17.0083 35.6787 16.8975 35.5125 16.8975Z" fill="#262626"/>
<path d="M98.5318 19.0305L90.9141 10.4432V19.6953C90.9141 19.8615 90.8033 19.9723 90.6371 19.9723H87.9778C87.8116 19.9723 87.7008 19.8615 87.7008 19.6953V0.277008C87.7008 0.110803 87.8116 0 87.9778 0H90.6371C90.8033 0 90.9141 0.110803 90.9141 0.277008V9.14127L98.1717 0.941828C98.698 0.360111 99.446 0 100.249 0H102.438C102.687 0 102.798 0.277008 102.632 0.470914L94.4321 9.75069L103.047 19.5291C103.213 19.6953 103.075 20 102.825 20H100.609C99.8061 19.9723 99.0582 19.6399 98.5318 19.0305Z" fill="#262626"/>
<path d="M143.601 3.07479H137.784V19.6953C137.784 19.8615 137.673 19.9723 137.507 19.9723H134.848C134.681 19.9723 134.571 19.8615 134.571 19.6953V3.07479H128.781C128.615 3.07479 128.504 2.96399 128.504 2.79778V0.277008C128.504 0.110803 128.615 0 128.781 0H143.629C143.795 0 143.906 0.110803 143.906 0.277008V2.79778C143.878 2.96399 143.767 3.07479 143.601 3.07479Z" fill="#262626"/>
<path d="M168.781 0.332419V19.723C168.781 19.8892 168.67 20 168.504 20H166.482C165.54 20 164.654 19.5291 164.155 18.7258L155.014 4.57065L155.319 11.6344V19.6953C155.319 19.8615 155.208 19.9723 155.042 19.9723H152.355C152.188 19.9723 152.078 19.8615 152.078 19.6953V0.304718C152.078 0.138513 152.188 0.02771 152.355 0.02771H154.349C155.291 0.02771 156.15 0.498624 156.676 1.30195L165.817 15.4294L165.54 8.39336V0.332419C165.54 0.166214 165.651 0.0554108 165.817 0.0554108H168.476C168.643 0.0554108 168.781 0.193915 168.781 0.332419Z" fill="#CB015B"/>
<path d="M187.258 0.0553894H174.875C174.681 0.0553894 174.515 0.221594 174.515 0.4155C174.515 1.91135 175.734 3.13018 177.23 3.13018H187.258C187.424 3.13018 187.535 3.01938 187.535 2.85317V0.332398C187.535 0.193894 187.424 0.0553894 187.258 0.0553894ZM177.729 19.723V11.662C177.729 11.4958 177.839 11.385 178.006 11.385H186.537C186.704 11.385 186.814 11.2742 186.814 11.108V8.58724C186.814 8.42104 186.704 8.31024 186.537 8.31024H174.931C174.709 8.31024 174.515 8.50414 174.515 8.72575V19.6122C174.515 19.8338 174.709 20.0277 174.931 20.0277H177.452C177.618 20 177.729 19.8892 177.729 19.723Z" fill="#CB015B"/>
<path d="M207.091 3.1025H201.274V19.723C201.274 19.8892 201.163 20 200.997 20H198.338C198.172 20 198.061 19.8892 198.061 19.723V3.1025H192.244C192.078 3.1025 191.967 2.9917 191.967 2.82549V0.304718C191.967 0.138513 192.078 0.02771 192.244 0.02771H207.091C207.258 0.02771 207.368 0.138513 207.368 0.304718V2.82549C207.368 2.9917 207.258 3.1025 207.091 3.1025Z" fill="#CB015B"/>
</g>
<defs>
<clipPath id="clip0">
<rect width="207.368" height="20" fill="white"/>
</clipPath>
</defs>
</svg>
