<svg width="18" height="16" viewBox="0 0 18 16" fill="none" xmlns="http://www.w3.org/2000/svg">
<path opacity="0.5" d="M8.7 11.675C9.94264 11.675 10.95 10.6677 10.95 9.42505C10.95 8.18241 9.94264 7.17505 8.7 7.17505C7.45736 7.17505 6.45 8.18241 6.45 9.42505C6.45 10.6677 7.45736 11.675 8.7 11.675Z" fill="#C4C4C4"/>
<path opacity="0.5" d="M5.925 6.77502C6.54632 6.77502 7.05 6.27134 7.05 5.65002C7.05 5.0287 6.54632 4.52502 5.925 4.52502C5.30368 4.52502 4.8 5.0287 4.8 5.65002C4.8 6.27134 5.30368 6.77502 5.925 6.77502Z" fill="#C4C4C4"/>
<path d="M9 1.5C9.65 1.5 10.3 1.575 10.925 1.725C10.975 1.775 11.075 1.975 11 2.175C10.45 3.85 10.6 5.275 11.425 6.225C11.95 6.85 12.725 7.175 13.6 7.175C14.425 7.175 15.325 6.875 16.25 6.3C16.25 6.325 16.275 6.35 16.275 6.4C16.4 6.875 16.475 7.375 16.475 7.875C16.5 11.4 13.125 14.25 9 14.25C4.875 14.25 1.5 11.4 1.5 7.875C1.5 4.35 4.875 1.5 9 1.5ZM9 0C4.025 0 0 3.525 0 7.875C0 12.225 4.025 15.75 9 15.75C13.975 15.75 18 12.225 18 7.875C18 7.225 17.9 6.6 17.75 5.975C17.525 5.225 16.925 4.75 16.3 4.75C16.05 4.75 15.8 4.825 15.575 4.975C14.875 5.425 14.2 5.675 13.625 5.675C13.2 5.675 12.85 5.525 12.575 5.225C12.1 4.675 12.1 3.7 12.45 2.625C12.775 1.6 12.225 0.475 11.3 0.25C10.575 0.1 9.8 0 9 0Z" fill="#C4C4C4"/>
</svg>
