<svg width="93" height="68" viewBox="0 0 93 68" fill="none" xmlns="http://www.w3.org/2000/svg">
<path opacity="0.5" d="M9 36.125C8.375 36.125 7.875 35.625 7.875 35V29.5C7.875 28.875 8.375 28.375 9 28.375C9.625 28.375 10.125 28.875 10.125 29.5V35C10.125 35.625 9.625 36.125 9 36.125Z" fill="#C4C4C4"/>
<path d="M13.675 27.5C15.225 27.5 16.5 28.775 16.5 30.325V33.5H15.75H14.25V35V40.25H3.75V35V33.5H2.25H1.5V30.325C1.5 28.775 2.775 27.5 4.325 27.5H5.575C6.15 28.825 7.475 29.75 9 29.75C10.525 29.75 11.85 28.825 12.425 27.5H13.675ZM13.675 26H11.25C11.25 27.25 10.25 28.25 9 28.25C7.75 28.25 6.75 27.25 6.75 26H4.325C1.925 26 0 27.925 0 30.325V35H2.25V41.75H15.75V35H18V30.325C18 27.925 16.075 26 13.675 26Z" fill="#C4C4C4"/>
<path opacity="0.5" d="M8.70001 11.675C9.94265 11.675 10.95 10.6677 10.95 9.42505C10.95 8.18241 9.94265 7.17505 8.70001 7.17505C7.45737 7.17505 6.45001 8.18241 6.45001 9.42505C6.45001 10.6677 7.45737 11.675 8.70001 11.675Z" fill="#C4C4C4"/>
<path opacity="0.5" d="M5.92499 6.77502C6.54631 6.77502 7.04999 6.27134 7.04999 5.65002C7.04999 5.0287 6.54631 4.52502 5.92499 4.52502C5.30367 4.52502 4.79999 5.0287 4.79999 5.65002C4.79999 6.27134 5.30367 6.77502 5.92499 6.77502Z" fill="#C4C4C4"/>
<path d="M9 1.5C9.65 1.5 10.3 1.575 10.925 1.725C10.975 1.775 11.075 1.975 11 2.175C10.45 3.85 10.6 5.275 11.425 6.225C11.95 6.85 12.725 7.175 13.6 7.175C14.425 7.175 15.325 6.875 16.25 6.3C16.25 6.325 16.275 6.35 16.275 6.4C16.4 6.875 16.475 7.375 16.475 7.875C16.5 11.4 13.125 14.25 9 14.25C4.875 14.25 1.5 11.4 1.5 7.875C1.5 4.35 4.875 1.5 9 1.5ZM9 0C4.025 0 0 3.525 0 7.875C0 12.225 4.025 15.75 9 15.75C13.975 15.75 18 12.225 18 7.875C18 7.225 17.9 6.6 17.75 5.975C17.525 5.225 16.925 4.75 16.3 4.75C16.05 4.75 15.8 4.825 15.575 4.975C14.875 5.425 14.2 5.675 13.625 5.675C13.2 5.675 12.85 5.525 12.575 5.225C12.1 4.675 12.1 3.7 12.45 2.625C12.775 1.6 12.225 0.475 11.3 0.25C10.575 0.1 9.8 0 9 0Z" fill="#C4C4C4"/>
<path d="M6.8 53.5C7.025 53.5 7.25 53.55 7.45 53.65C7.925 53.875 8.475 54 9 54C9.525 54 10.075 53.875 10.55 53.65C10.775 53.55 11 53.5 11.2 53.5C11.575 53.675 13.025 55.5 13.95 59.85L14.075 60.475L14.6 60.825C15.025 61.1 15.425 61.3 15.725 61.475C16 61.625 16.35 61.825 16.45 61.925C16.45 61.95 16.475 62.025 16.475 62.15C16.475 63.45 15.275 64.4 14.55 64.85C13.1 65.75 11.075 66.275 8.975 66.275C6.875 66.275 4.85 65.75 3.4 64.85C2.675 64.4 1.475 63.45 1.475 62.15C1.475 62 1.5 61.95 1.5 61.925C1.6 61.825 1.95 61.625 2.225 61.475C2.525 61.3 2.925 61.1 3.35 60.825L3.875 60.475L4 59.85C4.95 55.5 6.425 53.675 6.8 53.5ZM11.25 52C10.775 52 10.325 52.1 9.925 52.3C9.625 52.425 9.325 52.5 9 52.5C8.675 52.5 8.375 52.425 8.075 52.3C7.65 52.1 7.2 52 6.75 52C4.85 52 3.225 56.425 2.575 59.525C0.975 60.55 0 60.6 0 62.125C0 65.225 4.025 67.75 9 67.75C13.975 67.75 18 65.225 18 62.125C18 60.6 17.025 60.55 15.425 59.525C14.775 56.425 13.15 52 11.25 52Z" fill="#C4C4C4"/>
<path opacity="0.5" d="M9.07501 62.0251C8.17501 62.0251 7.37501 61.9001 6.70001 61.7251C4.57501 61.1751 3.22501 60.1001 3.17501 60.0501C2.70001 59.6501 2.62501 58.9501 3.02501 58.4751C3.42501 58.0001 4.12501 57.9251 4.60001 58.3001C4.77501 58.4501 8.82501 61.6001 13.675 58.2501C14.175 57.9001 14.875 58.0251 15.25 58.5501C15.6 59.0501 15.475 59.7501 14.95 60.1251C12.8 61.5751 10.775 62.0251 9.07501 62.0251Z" fill="#C4C4C4"/>
<circle cx="32.5" cy="7.5" r="4.5" fill="#3F4246"/>
<circle cx="46.5" cy="7.5" r="4.5" fill="#3F4246"/>
<circle cx="60.5" cy="7.5" r="4.5" fill="#3F4246"/>
<circle cx="74.5" cy="7.5" r="4.5" fill="#E6E6E6"/>
<circle cx="88.5" cy="7.5" r="4.5" fill="#E6E6E6"/>
<circle cx="32.5" cy="33.5" r="4.5" fill="#3F4246"/>
<circle cx="46.5" cy="33.5" r="4.5" fill="#3F4246"/>
<circle cx="60.5" cy="33.5" r="4.5" fill="#3F4246"/>
<circle cx="74.5" cy="33.5" r="4.5" fill="#E6E6E6"/>
<circle cx="88.5" cy="33.5" r="4.5" fill="#E6E6E6"/>
<circle cx="32.5" cy="59.5" r="4.5" fill="#3F4246"/>
<circle cx="46.5" cy="59.5" r="4.5" fill="#3F4246"/>
<circle cx="60.5" cy="59.5" r="4.5" fill="#3F4246"/>
<circle cx="74.5" cy="59.5" r="4.5" fill="#3F4246"/>
<circle cx="88.5" cy="59.5" r="4.5" fill="#E6E6E6"/>
</svg>
