<svg width="18" height="18" viewBox="0 0 18 18" fill="none" xmlns="http://www.w3.org/2000/svg">
<path d="M9 2.25C12.725 2.25 15.75 5.275 15.75 9C15.75 12.725 12.725 15.75 9 15.75C5.275 15.75 2.25 12.725 2.25 9C2.25 5.275 5.275 2.25 9 2.25ZM9 0C4.025 0 0 4.025 0 9C0 13.975 4.025 18 9 18C13.975 18 18 13.975 18 9C18 4.025 13.975 0 9 0Z" fill="#A6D836"/>
<g opacity="0.5">
<path opacity="0.5" d="M9 13.5C11.4853 13.5 13.5 11.4853 13.5 9C13.5 6.51472 11.4853 4.5 9 4.5C6.51472 4.5 4.5 6.51472 4.5 9C4.5 11.4853 6.51472 13.5 9 13.5Z" fill="#A6D836"/>
</g>
</svg>
