<svg width="144" height="144" viewBox="0 0 144 144" fill="none" xmlns="http://www.w3.org/2000/svg">
<mask id="mask0" style="mask-type:alpha" maskUnits="userSpaceOnUse" x="0" y="0" width="144" height="144">
<rect width="144" height="144" rx="9" fill="#C4C4C4"/>
</mask>
<g mask="url(#mask0)">
<rect width="144" height="144" rx="5" fill="white"/>
<path d="M124.156 36.3516C123.866 35.4846 123.228 34.4441 122.243 34.5597C121.722 34.6176 121.258 34.9644 120.91 35.3112C117.085 39.0105 114.129 43.5768 112.391 48.4321C108.971 44.5016 103.465 41.2647 94.9458 40.1087C93.6128 39.9353 86.5422 39.3573 77.6749 39.0683C73.8498 35.947 69.1554 31.1495 66.8951 32.6523C66.1417 33.2303 65.8519 34.3863 66.3735 35.1956C64.403 33.8083 63.0121 32.4789 60.8097 31.4963C58.2017 30.3402 57.2744 32.3633 57.3324 33.2881C57.3903 34.2129 57.9119 35.08 58.4335 35.8892C56.9267 35.1956 53.913 32.0165 52.6379 33.6349C52.1743 34.1551 52.1743 34.791 52.4061 35.369C53.2175 37.2186 54.8982 38.6058 56.8108 39.1839C49.1606 39.6463 42.2638 40.5711 38.1489 42.4785C35.425 43.7502 33.2806 45.253 31.5419 46.9293C29.8612 43.23 27.427 39.7619 24.4133 36.814C24.0656 36.4672 23.6599 36.0626 23.0803 36.0626C22.153 36.0048 21.5735 36.9874 21.2257 37.8544C17.6325 47.8541 16.879 58.7207 19.1973 69.0672C19.6609 71.2637 20.3564 73.5757 21.9212 75.3098C23.4281 76.986 25.9202 77.9686 28.1225 77.3906C29.3976 80.4541 31.0783 83.402 33.1647 86.0608C37.1637 91.2052 47.4219 100.338 50.4356 109.47C50.4356 109.47 50.7254 110.453 51.1311 111.956C48.639 119.412 43.4229 126.984 41.2206 135.654C40.699 137.851 40.2933 140.105 40.1194 142.359C40.0035 144.093 39.9456 145.943 40.5251 147.619C41.0467 149.296 42.2638 150.856 43.8866 151.319C44.8718 149.816 45.2775 147.851 44.8718 146.001C45.3934 146.406 45.1036 147.33 45.4514 147.908C45.8571 148.544 46.7844 148.371 47.1901 147.793C47.5958 147.215 47.5958 146.406 47.5958 145.654C47.5378 139.874 47.8855 133.978 50.0299 128.718C50.7254 127.042 51.5368 125.077 52.4061 123.343C52.522 134.498 49.856 145.654 49.856 159.064C48.523 159.122 47.1901 159.931 46.4366 161.087C45.915 161.896 45.915 162.879 46.4946 163.746C46.7264 164.093 47.5958 164.382 48.4651 164.208C48.581 165.018 49.1606 165.711 50.0879 165.885C51.0152 166.116 52.4641 165.885 53.1595 165.249C53.855 166.058 54.9562 166.463 55.9994 166.405C57.0426 166.347 58.0278 165.711 58.6074 164.844C58.9551 165.769 60.1143 166.347 61.0995 166.116C62.0848 165.885 62.8961 165.018 63.128 164.035C63.4757 162.648 63.4757 161.55 62.8382 159.642C63.1859 156.29 63.4757 153.168 63.8814 150.625C64.1132 149.585 64.461 148.371 64.9246 147.562L64.9826 147.504C65.2723 147.099 67.3588 144.382 71.4157 144.325C71.4157 144.325 76.5738 144.093 78.5443 147.851C78.5443 147.851 79.1818 148.949 79.6454 151.376C79.7614 152.128 79.8773 152.937 79.9932 153.804C79.9932 154.035 80.0511 154.324 80.0511 154.613V154.556C80.225 156.174 80.3989 157.85 80.5727 159.642C79.9932 161.607 79.9932 162.706 80.283 164.093C80.5148 165.075 81.3262 165.942 82.3114 166.174C83.2967 166.405 84.4558 165.827 84.8035 164.902C85.3831 165.769 86.3683 166.405 87.4116 166.463C88.4548 166.52 89.5559 166.116 90.2514 165.307C90.9469 166 92.3958 166.174 93.3231 165.942C94.2504 165.711 94.8299 165.075 94.9458 164.266C95.8152 164.44 96.6845 164.151 96.9163 163.804C97.5539 162.937 97.4959 161.954 96.9743 161.145C96.2788 159.931 94.9458 159.18 93.5549 159.122C93.4969 150.336 92.3378 142.533 91.5264 135.019C91.5264 135.076 91.5264 135.134 91.5264 135.134C90.5991 127.042 91.0048 122.707 91.1207 121.435C92.1639 123.574 93.5549 126.58 94.5401 129.007C96.1629 133.053 96.7425 137.504 96.9163 141.955C96.9163 142.013 96.8584 142.07 96.8584 142.128C96.8584 143.573 96.7425 146.059 96.7425 146.059C96.047 152.301 97.38 151.954 97.38 151.954C98.5971 152.475 99.3505 148.775 99.3505 148.775C99.3505 151.723 99.988 153.457 99.988 153.457C100.915 155.538 102.77 152.995 102.77 152.995C106.247 146.232 104.161 139.412 104.161 139.412C103.987 138.256 103.755 137.1 103.465 135.943C101.031 126.233 94.714 117.852 92.8015 109.528C95.6993 100.396 105.957 91.263 109.956 86.1186C112.275 83.113 114.129 79.7605 115.404 76.2346C115.81 76.5236 116.216 76.7548 116.679 76.8704C119.056 77.7374 121.837 76.6392 123.46 74.8474C125.083 73.0555 125.778 70.7435 126.3 68.4314C128.676 57.7959 127.923 46.5824 124.156 36.3516Z" fill="#262626"/>
</g>
</svg>
