<svg width="24" height="26" viewBox="0 0 24 26" fill="none" xmlns="http://www.w3.org/2000/svg">
<path fill-rule="evenodd" clip-rule="evenodd" d="M15.9223 12.0706C15.9223 12.8456 15.3051 13.4809 14.5234 13.4809C14.252 13.4809 13.9976 13.4016 13.7822 13.2647C13.6276 13.1664 13.493 13.0385 13.3866 12.889C13.2215 12.6576 13.1239 12.3744 13.1239 12.0695C13.1239 11.2945 13.741 10.6592 14.5227 10.6592C15.0137 10.6592 15.4397 10.9097 15.6887 11.2881C15.8366 11.5125 15.9223 11.7818 15.9223 12.0706ZM24 2.61741V25.4118C23.4504 24.9618 23.0162 24.6071 22.6585 24.3149C21.9655 23.7488 21.5592 23.4169 21.1566 23.0806C20.5861 22.6042 20.023 22.1189 18.6621 20.9462C18.362 20.6875 18.023 20.3954 17.6366 20.0626L18.3634 22.4132H2.81143C1.26171 22.4132 0 21.2442 0 19.7958V2.61741C0 1.16894 1.26171 0 2.81143 0H21.1886C22.7383 0 24 1.16894 24 2.61741ZM14.9897 15.5647C16.7718 15.0984 17.4609 14.0695 17.4719 14.0529C16.9097 14.3959 16.3749 14.6373 15.895 14.8024C12.9402 15.9522 9.65206 15.5587 7.33724 14.3577C7.3305 14.3535 7.30587 14.3404 7.26956 14.3211C7.21272 14.2908 7.12725 14.2453 7.03688 14.195C6.94658 14.1447 6.85138 14.0896 6.77496 14.0401C6.77496 14.0401 7.05676 14.4752 7.73944 14.9113C8.10015 15.1417 8.57277 15.3724 9.17486 15.5393L9.17483 15.5393L9.17496 15.5394C8.76353 16.0222 8.2561 16.5939 8.2561 16.5939C6.89751 16.5541 5.91644 16.1619 5.24742 15.7413C4.42387 15.2235 4.07314 14.6626 4.07314 14.6626C4.07314 10.5713 6.048 7.25506 6.048 7.25506C8.02286 5.88282 9.90171 5.92094 9.90171 5.92094L9.90177 5.921L9.90181 5.921L10.039 6.07347C7.59374 6.72793 6.45376 7.71899 6.43241 7.73768C6.44487 7.7314 6.74446 7.58084 7.24114 7.36941C10.4012 6.08339 14.228 6.08369 17.4857 7.73788C17.4857 7.73788 17.418 7.67832 17.28 7.57866C17.0512 7.41343 16.6292 7.13796 16.0023 6.84093C15.4948 6.6005 14.8531 6.34596 14.071 6.1243L14.071 6.12427L14.0709 6.12424L14.2629 5.92094C14.2629 5.92094 15.5032 5.89578 17.0276 6.62238C17.3794 6.79005 17.7463 6.99776 18.1166 7.25506L18.1167 7.25512C18.1167 7.25512 20.0915 10.5714 20.0915 14.6627C20.0915 14.6627 18.9258 16.505 15.895 16.5939L15.8949 16.5939L15.8949 16.5939C15.8949 16.5939 15.4011 16.0475 14.9897 15.5647ZM8.11816 12.0695C8.11816 11.2945 8.73531 10.6592 9.51702 10.6592C10.2987 10.6592 10.9296 11.2945 10.9159 12.0695C10.9159 12.8446 10.2987 13.4799 9.51702 13.4799C8.74902 13.4799 8.11816 12.8446 8.11816 12.0695Z" fill="#262626"/>
</svg>
