<svg width="280" height="280" viewBox="0 0 280 280" fill="none" xmlns="http://www.w3.org/2000/svg">
<mask id="mask0" style="mask-type:alpha" maskUnits="userSpaceOnUse" x="0" y="0" width="280" height="280">
<circle cx="140" cy="140" r="140" fill="#C4C4C4"/>
</mask>
<g mask="url(#mask0)">
<circle cx="140" cy="140" r="140" fill="url(#paint0_linear)"/>
<g filter="url(#filter0_f)">
<circle cx="140" cy="140" r="74" fill="#F5B842"/>
</g>
<path d="M241.414 70.6837C240.851 68.9978 239.611 66.9747 237.695 67.1995C236.681 67.3119 235.779 67.9863 235.103 68.6606C227.666 75.8537 221.918 84.7326 218.537 94.1735C211.889 86.5309 201.183 80.2369 184.617 77.9891C182.025 77.6519 168.277 76.528 151.035 75.9661C143.597 69.8969 134.469 60.5684 130.074 63.4906C128.609 64.6145 128.046 66.8623 129.06 68.4358C125.228 65.7384 122.524 63.1534 118.241 61.2428C113.17 58.9949 111.367 62.9286 111.48 64.7269C111.592 66.5252 112.607 68.211 113.621 69.7845C110.691 68.4358 104.831 62.2543 102.352 65.4012C101.45 66.4128 101.45 67.6491 101.901 68.773C103.479 72.3695 106.747 75.0669 110.466 76.1908C95.5902 77.09 82.1798 78.8882 74.1786 82.5972C68.8821 85.0698 64.7125 87.992 61.3317 91.2513C58.0636 84.0583 53.3305 77.3148 47.4705 71.5828C46.7944 70.9084 46.0055 70.1217 44.8786 70.1217C43.0755 70.0093 41.9486 71.92 41.2725 73.6058C34.2855 93.0496 32.8205 114.179 37.3282 134.297C38.2298 138.568 39.5821 143.064 42.6248 146.436C45.5548 149.695 50.4005 151.606 54.6828 150.482C57.1621 156.439 60.4302 162.17 64.4871 167.34C72.2628 177.343 92.2094 195.101 98.0694 212.859C98.0694 212.859 98.6329 214.77 99.4217 217.692C94.5759 232.191 84.4336 246.914 80.1513 263.773C79.1371 268.043 78.3482 272.427 78.0102 276.81C77.7848 280.182 77.6721 283.778 78.799 287.038C79.8132 290.297 82.1798 293.332 85.3352 294.231C87.2509 291.309 88.0398 287.487 87.2509 283.891C88.2652 284.677 87.7017 286.476 88.3778 287.6C89.1667 288.836 90.9698 288.499 91.7586 287.375C92.5475 286.251 92.5475 284.677 92.5475 283.216C92.4348 271.977 93.1109 260.513 97.2805 250.286C98.6328 247.026 100.211 243.205 101.901 239.833C102.126 261.525 96.9425 283.216 96.9425 309.291C94.3505 309.404 91.7586 310.977 90.2936 313.225C89.2794 314.798 89.2794 316.709 90.4063 318.395C90.8571 319.069 92.5475 319.631 94.2378 319.294C94.4632 320.868 95.5902 322.216 97.3932 322.553C99.1963 323.003 102.014 322.553 103.366 321.317C104.718 322.891 106.859 323.677 108.888 323.565C110.916 323.453 112.832 322.216 113.959 320.53C114.635 322.329 116.889 323.453 118.805 323.003C120.721 322.553 122.298 320.868 122.749 318.957C123.425 316.259 123.425 314.124 122.186 310.415C122.862 303.896 123.425 297.827 124.214 292.882C124.665 290.859 125.341 288.499 126.242 286.925L126.355 286.813C126.919 286.026 130.976 280.744 138.864 280.631C138.864 280.631 148.894 280.182 152.725 287.487C152.725 287.487 153.965 289.623 154.866 294.343C155.092 295.804 155.317 297.378 155.542 299.064C155.542 299.513 155.655 300.075 155.655 300.637V300.525C155.993 303.672 156.331 306.931 156.669 310.415C155.542 314.236 155.542 316.372 156.106 319.069C156.557 320.98 158.134 322.666 160.05 323.115C161.966 323.565 164.22 322.441 164.896 320.643C166.023 322.329 167.939 323.565 169.967 323.677C171.996 323.79 174.137 323.003 175.489 321.43C176.841 322.778 179.659 323.115 181.462 322.666C183.265 322.216 184.392 320.98 184.617 319.406C186.307 319.744 187.998 319.182 188.449 318.507C189.688 316.821 189.576 314.911 188.561 313.337C187.209 310.977 184.617 309.516 181.912 309.404C181.8 292.32 179.546 277.147 177.968 262.536C177.968 262.649 177.968 262.761 177.968 262.761C176.165 247.026 176.954 238.597 177.179 236.124C179.208 240.283 181.912 246.127 183.828 250.848C186.984 258.715 188.111 267.369 188.449 276.023C188.449 276.136 188.336 276.248 188.336 276.36C188.336 279.17 188.111 284.003 188.111 284.003C186.758 296.141 189.35 295.467 189.35 295.467C191.717 296.479 193.182 289.285 193.182 289.285C193.182 295.017 194.421 298.389 194.421 298.389C196.224 302.435 199.831 297.49 199.831 297.49C206.592 284.34 202.535 271.078 202.535 271.078C202.197 268.83 201.746 266.582 201.183 264.335C196.45 245.453 184.166 229.156 180.447 212.972C186.082 195.214 206.029 177.456 213.804 167.453C218.312 161.609 221.918 155.09 224.397 148.234C225.186 148.796 225.975 149.245 226.877 149.47C231.497 151.156 236.906 149.021 240.062 145.537C243.217 142.052 244.569 137.557 245.584 133.061C250.204 112.381 248.739 90.577 241.414 70.6837Z" fill="#262626"/>
</g>
<defs>
<filter id="filter0_f" x="-34" y="-34" width="348" height="348" filterUnits="userSpaceOnUse" color-interpolation-filters="sRGB">
<feFlood flood-opacity="0" result="BackgroundImageFix"/>
<feBlend mode="normal" in="SourceGraphic" in2="BackgroundImageFix" result="shape"/>
<feGaussianBlur stdDeviation="50" result="effect1_foregroundBlur"/>
</filter>
<linearGradient id="paint0_linear" x1="140" y1="0" x2="140" y2="280" gradientUnits="userSpaceOnUse">
<stop stop-color="#98144E"/>
<stop offset="1" stop-color="#CB015B"/>
</linearGradient>
</defs>
</svg>
