<svg width="24" height="24" viewBox="0 0 24 24" fill="none" xmlns="http://www.w3.org/2000/svg">
<path d="M21.533 7.1119C21.5482 7.32509 21.5482 7.53832 21.5482 7.75151C21.5482 14.254 16.599 21.7464 7.5533 21.7464C4.76648 21.7464 2.17767 20.9393 0 19.5383C0.395953 19.584 0.776625 19.5992 1.18781 19.5992C3.48727 19.5992 5.60405 18.8226 7.29441 17.4977C5.13197 17.452 3.31978 16.0358 2.69541 14.0865C3 14.1322 3.30455 14.1627 3.62437 14.1627C4.06598 14.1627 4.50764 14.1017 4.91878 13.9952C2.66498 13.5383 0.974578 11.5586 0.974578 9.16775V9.10686C1.62937 9.47234 2.39086 9.70076 3.19791 9.73118C1.87303 8.84792 1.00505 7.34032 1.00505 5.63473C1.00505 4.72104 1.24866 3.88348 1.67508 3.15251C4.09641 6.13728 7.73602 8.08648 11.8172 8.29972C11.7411 7.93423 11.6954 7.55356 11.6954 7.17284C11.6954 4.46215 13.8883 2.25406 16.6141 2.25406C18.0304 2.25406 19.3095 2.84797 20.208 3.80736C21.3197 3.59417 22.3857 3.18298 23.3299 2.61954C22.9643 3.7617 22.1877 4.72109 21.1674 5.33018C22.1573 5.22364 23.1167 4.94947 23.9999 4.56879C23.33 5.54337 22.4924 6.41136 21.533 7.1119Z" fill="#262626"/>
</svg>
