<svg width="31" height="30" viewBox="0 0 31 30" fill="none" xmlns="http://www.w3.org/2000/svg">
<path d="M12.2923 14.25C11.4173 14.25 10.709 15.0417 10.709 16C10.709 16.9583 11.4173 17.75 12.2923 17.75C13.1673 17.75 13.8756 16.9583 13.8756 16C13.8756 15.0417 13.1673 14.25 12.2923 14.25ZM18.0007 14.25C17.1257 14.25 16.4173 15.0417 16.4173 16C16.4173 16.9583 17.1257 17.75 18.0007 17.75C18.8757 17.75 19.584 16.9583 19.584 16C19.584 15.0417 18.9173 14.25 18.0007 14.25ZM0.208984 15C0.208984 23.2917 6.91732 30 15.209 30C23.5007 30 30.209 23.2917 30.209 15C30.209 6.70833 23.5007 0 15.209 0C6.91732 0 0.208984 6.70833 0.208984 15ZM19.584 21.5833C19.584 21.5833 19.0007 20.9167 18.5423 20.2917C20.584 19.7083 21.3756 18.4167 21.3756 18.4167C20.7506 18.8333 20.1257 19.125 19.584 19.3333C18.7923 19.6667 18.0423 19.875 17.2923 20C15.7923 20.2917 14.4173 20.2083 13.209 20C12.334 19.8333 11.5423 19.5833 10.9173 19.3333C10.5423 19.2083 10.1673 19 9.75065 18.7917C9.70898 18.75 9.66732 18.75 9.62565 18.7083C9.58399 18.7083 9.58398 18.6667 9.54231 18.6667C9.25065 18.5 9.08398 18.4167 9.08398 18.4167C9.08398 18.4167 9.83398 19.6667 11.834 20.25C11.3756 20.8333 10.7923 21.5417 10.7923 21.5417C7.33398 21.4167 6.00065 19.1667 6.00065 19.1667C6.00065 14.125 8.25065 10 8.25065 10C10.5006 8.29167 12.6673 8.33333 12.6673 8.33333L12.834 8.54167C10.0006 9.375 8.70898 10.5833 8.70898 10.5833C8.70898 10.5833 9.04232 10.375 9.62565 10.125C11.2923 9.375 12.6257 9.16667 13.209 9.125C13.2923 9.125 13.3756 9.08333 13.459 9.08333C14.4173 8.95833 15.5006 8.91667 16.6256 9.04167C18.1256 9.20833 19.709 9.66667 21.334 10.5417C21.334 10.5417 20.084 9.375 17.4173 8.54167L17.6256 8.29167C17.6256 8.29167 19.7923 8.25 22.0423 9.95833C22.0423 9.95833 24.2923 14.0417 24.2923 19.125C24.3756 19.2083 23.0423 21.5 19.584 21.5833Z" fill="#CB015B"/>
</svg>
