<svg width="31" height="30" viewBox="0 0 31 30" fill="none" xmlns="http://www.w3.org/2000/svg">
<path d="M27.1967 6.10879C27.0712 5.89958 26.9037 5.73222 26.7364 5.52301C26.1088 4.76988 25.4394 4.10042 24.6862 3.4728C24.5189 3.30544 24.3096 3.17992 24.1004 3.01255C21.59 1.12971 18.4519 0 15.1046 0C11.7573 0 8.61926 1.12971 6.1088 3.01255C5.8996 3.13808 5.73222 3.30544 5.52302 3.4728C4.76988 4.10042 4.10041 4.76988 3.4728 5.52301C3.30543 5.69038 3.17992 5.89958 3.01256 6.10879C1.12971 8.61925 0 11.7573 0 15.1046C0 22.5941 5.48117 28.8285 12.6778 29.9582V18.8703H10.4184V15.0628H12.6778C12.6778 15.0628 12.6778 12.5105 12.6778 11.9665C12.6778 11.3808 12.5523 7.57322 17.4477 7.57322H20.8786V11.5481H18.3682C17.8661 11.5481 17.364 12.0921 17.364 12.4686C17.364 12.8452 17.364 15.0628 17.364 15.0628H20.8786C20.7531 17.0711 20.4602 18.8703 20.4602 18.8703H17.364V30C24.6444 28.9121 30.2092 22.6778 30.2092 15.1046C30.2092 11.7155 29.0795 8.61925 27.1967 6.10879Z" fill="#CB015B"/>
</svg>
