<svg width="30" height="30" viewBox="0 0 30 30" fill="none" xmlns="http://www.w3.org/2000/svg">
<path d="M14.7917 10C12.0417 10 9.79167 12.25 9.79167 15C9.79167 17.75 12.0417 20 14.7917 20C17.5417 20 19.7917 17.75 19.7917 15C19.7917 12.25 17.5417 10 14.7917 10ZM15 0C6.70833 0 0 6.70833 0 15C0 23.2917 6.70833 30 15 30C23.2917 30 30 23.2917 30 15C30 6.70833 23.2917 0 15 0ZM14.7917 22.7083C10.5417 22.7083 7.08333 19.25 7.08333 15C7.08333 10.75 10.5417 7.29167 14.7917 7.29167C19.0417 7.29167 22.5 10.75 22.5 15C22.5 19.25 19.0417 22.7083 14.7917 22.7083ZM22.7917 8.79167C21.7917 8.79167 21 8 21 7C21 6 21.7917 5.20833 22.7917 5.20833C23.7917 5.20833 24.5833 6 24.5833 7C24.5833 8 23.7917 8.79167 22.7917 8.79167Z" fill="#CB015B"/>
</svg>
