<svg width="30" height="30" viewBox="0 0 30 30" fill="none" xmlns="http://www.w3.org/2000/svg">
<path d="M0 15C0 23.2917 6.70833 30 15 30C23.2917 30 30 23.2917 30 15C30 6.70833 23.2917 0 15 0C6.70833 0 0 6.70833 0 15ZM11.7917 21.6667H8.50001V11.0833H11.7917V21.6667ZM10.125 9.79167C9.08335 9.79167 8.41665 9.04167 8.41665 8.16667C8.41665 7.25 9.12501 6.54167 10.1667 6.54167C11.2083 6.54167 11.875 7.25 11.9167 8.16667C11.9167 9.08333 11.25 9.79167 10.125 9.79167ZM23.375 21.6667H20.0833V15.7917C20.0833 14.4167 19.625 13.5 18.4166 13.5C17.5 13.5 16.9583 14.125 16.75 14.75C16.6666 14.9583 16.625 15.25 16.625 15.5833V21.6667H13.3333V14.4583C13.3333 13.125 13.2917 12.0417 13.25 11.0833H16.125L16.2917 12.5417H16.375C16.7917 11.8333 17.875 10.8333 19.625 10.8333C21.7917 10.8333 23.4166 12.2917 23.4166 15.4167V21.6667H23.375Z" fill="#CB015B"/>
</svg>
