<svg width="31" height="30" viewBox="0 0 31 30" fill="none" xmlns="http://www.w3.org/2000/svg">
<path d="M0.208984 15C0.208984 23.2917 6.91732 30 15.209 30C23.5007 30 30.209 23.2917 30.209 15C30.209 6.70833 23.5007 0 15.209 0C6.91732 0 0.208984 6.70833 0.208984 15ZM24.334 8.54167C24.334 8.54167 21.7507 21.75 21.709 22.0417C21.6257 22.375 21.5007 22.6667 21.2507 22.9167C21.0007 23.1667 20.6256 23.4167 20.1673 23.4167C19.3756 23.4167 19.0007 22.9167 18.959 22.875L16.1673 20.25L13.8756 22.25C13.8756 22.25 13.584 22.5 13.1673 22.5C13.0423 22.5 12.959 22.4583 12.834 22.4583C12.7923 22.4583 12.7923 22.4583 12.7507 22.4583C12.7507 22.4583 12.7507 22.4583 12.709 22.4583C12.6673 22.4583 12.6257 22.4167 12.584 22.375C12.459 22.2917 12.3757 22.2083 12.2923 22.125C12.1257 21.9167 12.0007 21.6667 11.8757 21.25C11.6673 20.625 10.834 18.0417 10.6673 17.5833C10.2507 17.4167 7.91732 16.4583 7.16732 16.1667C6.95899 16.0833 6.70899 15.9583 6.50065 15.75C6.29232 15.5417 6.08399 15.1667 6.08399 14.7917C6.08399 14.3333 6.37565 13.9167 6.62565 13.7083C6.87565 13.5 7.12565 13.4167 7.20898 13.375C9.08398 12.5833 12.709 11 15.959 9.58333C17.584 8.875 19.084 8.25 20.2507 7.75C21.3757 7.25 22.1257 6.95833 22.334 6.875C22.5423 6.79167 22.7507 6.70833 23.0007 6.70833C23.2507 6.70833 23.5007 6.75 23.7923 6.91667C24.084 7.08333 24.2923 7.375 24.3757 7.70833C24.4173 7.875 24.3756 8.20833 24.334 8.54167ZM16.5007 10.875C13.2507 12.25 9.62565 13.8333 7.75065 14.6667C8.54232 15 10.9173 15.9583 11.2923 16.125C13.459 14.875 18.2506 12.0833 19.334 11.375C19.4173 11.3333 19.584 11.2083 19.709 11.2083C19.834 11.2083 19.8757 11.2917 19.8757 11.4167C19.8757 11.5 19.834 11.5833 19.584 11.8333C19.2923 12.125 14.2923 17.3333 14.2923 17.3333L13.5006 20.5417L16.209 18.2083L20.0007 21.7917C20.0007 21.7917 20.084 21.8333 20.1256 21.875C20.1673 21.8333 20.209 21.75 20.1673 21.7917C20.2506 21.2917 22.7923 8.29167 22.7923 8.29167C22.7923 8.25 22.7923 8.29167 22.7923 8.25C22.709 8.29167 21.9173 8.625 20.7923 9.125C19.6673 9.54167 18.1257 10.2083 16.5007 10.875Z" fill="#CB015B"/>
</svg>
