<svg width="30" height="30" viewBox="0 0 30 30" fill="none" xmlns="http://www.w3.org/2000/svg">
<path d="M0 15C0 23.2917 6.70833 30 15 30C23.2917 30 30 23.2917 30 15C30 6.70833 23.2917 0 15 0C6.70833 0 0 6.70833 0 15ZM22.3333 11.25C22.3333 11.4167 22.3333 11.5833 22.3333 11.75C22.3333 16.75 18.5417 22.5417 11.5417 22.5417C9.41667 22.5417 7.41667 21.9167 5.75 20.8333C6.08333 20.8333 6.375 20.8333 6.66667 20.8333C8.45833 20.8333 10.0833 20.2083 11.375 19.2083C9.70833 19.1667 8.33333 18.0833 7.83333 16.5833C8.08333 16.625 8.29167 16.6667 8.54167 16.6667C8.875 16.6667 9.20833 16.625 9.54167 16.5417C7.79167 16.2083 6.5 14.6667 6.5 12.8333V12.7917C7 13.0833 7.58333 13.25 8.20833 13.25C7.20833 12.5833 6.54167 11.4167 6.54167 10.0833C6.54167 9.375 6.70833 8.75 7.04167 8.16667C8.91667 10.4583 11.7083 11.9583 14.8333 12.125C14.75 11.8333 14.75 11.5417 14.75 11.25C14.75 9.16667 16.4583 7.45833 18.5417 7.45833C19.625 7.45833 20.625 7.91667 21.2917 8.66667C22.1667 8.5 22.9583 8.16667 23.7083 7.75C23.4167 8.625 22.8333 9.375 22.0417 9.83333C22.7917 9.75 23.5417 9.54167 24.2083 9.25C23.7083 10.0417 23.0833 10.7083 22.3333 11.25Z" fill="#CB015B"/>
</svg>
