<svg width="31" height="30" viewBox="0 0 31 30" fill="none" xmlns="http://www.w3.org/2000/svg">
<path d="M21.584 15.8333C21.1673 15.8333 20.834 16.1667 20.834 16.5833C20.834 17.0417 21.1673 17.375 21.584 17.375C22.0006 17.375 22.334 17.0417 22.334 16.625C22.3756 16.2083 22.0006 15.875 21.584 15.8333ZM16.7507 15.8333C16.334 15.8333 15.959 16.2083 15.959 16.625C15.959 17.0417 16.334 17.375 16.7507 17.375C17.1673 17.375 17.5006 17.0417 17.5423 16.625C17.5423 16.2083 17.209 15.8333 16.7507 15.8333ZM9.08398 9.875C8.54231 9.875 8.12565 10.25 8.12565 10.7917C8.12565 11.3333 8.50066 11.75 9.04232 11.75C9.58399 11.75 10.0006 11.375 10.0423 10.8333C10.0006 10.3333 9.58398 9.91667 9.08398 9.875ZM0.208984 15C0.208984 23.2917 6.91732 30 15.209 30C23.5007 30 30.209 23.2917 30.209 15C30.209 6.70833 23.5007 0 15.209 0C6.91732 0 0.208984 6.70833 0.208984 15ZM9.95899 18.9583C9.70899 18.9167 9.37565 18.9583 9.16732 19.0833C8.45898 19.5 7.75064 19.9583 6.91731 20.4583C7.08397 19.7917 7.16731 19.1667 7.33397 18.625C7.45897 18.2083 7.41731 17.9583 7.00065 17.7083C4.50065 15.9583 3.45899 13.2917 4.25066 10.5833C4.95899 8.08333 6.75064 6.54167 9.20897 5.75C12.5423 4.66667 16.2507 5.79167 18.2923 8.41667C19.0007 9.375 19.459 10.4167 19.584 11.7083C17.5007 11.8333 15.709 12.4583 14.209 13.875C12.709 15.3333 12.0423 17.0833 12.2507 19.25C11.4173 19.1667 10.6673 19.0417 9.95899 18.9583ZM24.584 22.375C23.959 22.9583 23.709 23.4167 24.1257 24.1667C24.209 24.2917 24.209 24.5 24.2507 24.6667C23.584 24.375 23.0006 23.9167 22.334 23.875C21.709 23.7917 21.0006 24.1667 20.334 24.25C18.2923 24.4583 16.459 23.875 14.959 22.5C12.084 19.8333 12.5007 15.7917 15.834 13.5833C18.7923 11.6667 23.1257 12.2917 25.209 14.9583C27.0007 17.3333 26.7923 20.4167 24.584 22.375ZM15.0007 11.75C15.5423 11.75 15.9173 11.3333 15.9173 10.7917C15.9173 10.2917 15.5007 9.875 14.959 9.875C14.459 9.875 14.0006 10.3333 14.0006 10.8333C14.084 11.3333 14.5007 11.75 15.0007 11.75Z" fill="#CB015B"/>
</svg>
